<svg width="228" height="228" viewBox="0 0 228 228" fill="none" xmlns="http://www.w3.org/2000/svg">
<path d="M86.86 18.7193L89.2728 18.2938L89.6983 20.7066L87.2855 21.1321L86.86 18.7193ZM78.0598 25.2466L80.4726 24.8211L80.898 27.2339L78.4852 27.6594L78.0598 25.2466ZM97.362 21.8431L99.7748 21.4176L100.2 23.8304L97.7875 24.2559L97.362 21.8431ZM131.566 18.2997L133.979 17.8743L134.405 20.2871L131.992 20.7125L131.566 18.2997ZM138.805 17.0234L141.217 16.598L141.643 19.0108L139.23 19.4362L138.805 17.0234ZM146.043 15.7471L148.456 15.3217L148.881 17.7344L146.468 18.1599L146.043 15.7471ZM76.9233 32.9104L79.3361 32.4849L79.7616 34.8977L77.3488 35.3231L76.9233 32.9104ZM115.528 26.1034L117.941 25.6779L118.366 28.0907L115.953 28.5161L115.528 26.1034ZM91.8254 32.7705L94.2382 32.3451L94.6637 34.7579L92.2509 35.1833L91.8254 32.7705ZM106.302 30.2179L108.715 29.7924L109.14 32.2052L106.728 32.6307L106.302 30.2179ZM123.192 27.2398L125.604 26.8144L126.03 29.2272L123.617 29.6526L123.192 27.2398ZM152.145 22.1346L154.558 21.7091L154.983 24.1219L152.57 24.5473L152.145 22.1346ZM68.5485 41.8504L70.9613 41.425L71.3868 43.8378L68.974 44.2632L68.5485 41.8504ZM75.7869 40.5741L78.1997 40.1487L78.6251 42.5615L76.2123 42.9869L75.7869 40.5741ZM148.17 27.811L150.583 27.3856L151.859 34.6239L154.272 34.1985L154.698 36.6112L152.285 37.0367L151.859 34.6239L149.447 35.0493L148.17 27.811ZM42.4334 48.943L44.8462 48.5176L45.2716 50.9304L42.8588 51.3558L42.4334 48.943ZM49.6717 47.6667L52.0845 47.2413L52.51 49.6541L50.0972 50.0795L49.6717 47.6667ZM59.3229 45.965L61.7356 45.5395L62.1611 47.9523L59.7483 48.3778L59.3229 45.965ZM138.945 31.9255L141.357 31.5001L141.783 33.9129L139.37 34.3383L138.945 31.9255ZM155.834 28.9475L158.247 28.522L158.672 30.9348L156.259 31.3602L155.834 28.9475ZM81.4633 44.5488L83.8761 44.1234L84.3015 46.5362L81.8887 46.9616L81.4633 44.5488ZM86.2889 43.6979L88.7016 43.2725L89.1271 45.6853L86.7143 46.1107L86.2889 43.6979ZM103.178 40.7199L105.591 40.2944L106.017 42.7072L103.604 43.1327L103.178 40.7199ZM108.004 39.869L110.417 39.4436L110.842 41.8563L113.255 41.4309L113.68 43.8437L116.093 43.4182L116.519 45.831L118.931 45.4056L119.782 50.2311L124.608 49.3803L125.033 51.793L129.859 50.9422L129.433 48.5294L134.259 47.6785L135.11 52.5041L130.284 53.3549L130.71 55.7677L128.297 56.1932L128.722 58.6059L126.309 59.0314L126.735 61.4442L121.909 62.295L122.335 64.7078L124.748 64.2824L125.173 66.6952L122.76 67.1206L122.335 64.7078L117.509 65.5587L116.233 58.3204L118.646 57.8949L117.369 50.6566L114.957 51.082L114.531 48.6692L107.293 49.9456L106.867 47.5328L104.455 47.9582L104.88 50.371L102.467 50.7964L102.042 48.3836L104.455 47.9582L104.029 45.5454L111.268 44.2691L110.842 41.8563L108.429 42.2818L108.004 39.869ZM118.08 40.58L120.493 40.1546L120.919 42.5674L118.506 42.9928L118.08 40.58ZM41.2969 56.6068L43.7097 56.1814L44.1352 58.5942L41.7224 59.0196L41.2969 56.6068ZM48.5353 55.3305L50.9481 54.9051L51.3735 57.3178L53.7863 56.8924L54.2117 59.3052L56.6245 58.8797L57.0499 61.2925L54.6371 61.718L54.2117 59.3052L51.7989 59.7306L51.3735 57.3178L48.9607 57.7433L48.5353 55.3305ZM55.7736 54.0542L58.1864 53.6288L58.6118 56.0415L56.1991 56.467L55.7736 54.0542ZM75.0758 50.6507L77.4886 50.2252L77.9141 52.638L75.5013 53.0635L75.0758 50.6507ZM128.157 41.2911L130.57 40.8656L130.995 43.2784L128.582 43.7038L128.157 41.2911ZM161.936 35.3349L164.349 34.9095L164.774 37.3223L162.361 37.7477L161.936 35.3349ZM63.4374 55.1907L65.8502 54.7652L66.2756 57.178L63.8628 57.6034L63.4374 55.1907ZM68.6884 56.7526L75.9267 55.4762L76.7776 60.3018L79.1904 59.8764L78.7649 57.4636L81.1777 57.0381L81.6032 59.4509L86.4287 58.6001L86.8542 61.0128L89.2669 60.5874L88.8415 58.1746L91.2543 57.7492L90.8288 55.3364L93.2416 54.911L93.667 57.3237L98.4926 56.4729L98.918 58.8856L101.331 58.4602L101.756 60.873L96.9307 61.7239L98.207 68.9622L100.62 68.5368L101.045 70.9495L98.6325 71.375L98.207 68.9622L95.7942 69.3876L96.2197 71.8004L93.8069 72.2258L93.3815 69.8131L90.9687 70.2385L90.5432 67.8257L88.1305 68.2512L87.705 65.8384L85.2922 66.2638L84.8668 63.851L82.454 64.2765L81.6032 59.4509L79.1904 59.8764L79.6158 62.2891L77.203 62.7146L76.7776 60.3018L74.3648 60.7272L76.9174 75.2039L79.3302 74.7785L80.6065 82.0168L83.0193 81.5914L83.4448 84.0042L81.032 84.4296L81.4574 86.8424L79.0446 87.2678L79.8955 92.0934L77.4827 92.5188L78.3336 97.3444L75.9208 97.7698L76.3463 100.183L73.9335 100.608L75.6352 110.259L78.048 109.834L78.8989 114.659L74.0733 115.51L74.4988 117.923L72.086 118.348L72.5114 120.761L70.0987 121.187L69.6732 118.774L67.2604 119.199L66.835 116.786L71.6606 115.936L70.3842 108.697L67.9715 109.123L66.6952 101.884L69.1079 101.459L68.6825 99.0461L71.0953 98.6207L70.6698 96.2079L73.0826 95.7825L72.6572 93.3697L75.07 92.9442L74.6445 90.5315L77.0573 90.106L76.6319 87.6932L74.2191 88.1187L73.7936 85.7059L76.2064 85.2805L75.781 82.8677L73.3682 83.2931L72.9428 80.8803L70.53 81.3058L69.6791 76.4802L67.2663 76.9057L66.8409 74.4929L69.2537 74.0674L68.8282 71.6547L66.4155 72.0801L65.99 69.6673L70.8156 68.8165L69.9647 63.9909L72.3775 63.5655L71.5266 58.7399L69.1138 59.1653L68.6884 56.7526ZM89.2669 60.5874L89.6924 63.0002L92.1051 62.5747L91.6797 60.162L89.2669 60.5874ZM150.723 42.2877L153.136 41.8622L153.561 44.275L151.148 44.7004L150.723 42.2877ZM170.025 38.8842L172.438 38.4587L172.863 40.8715L170.451 41.2969L170.025 38.8842ZM163.212 42.5733L165.625 42.1478L166.05 44.5606L168.463 44.1352L168.889 46.5479L166.476 46.9734L166.05 44.5606L163.638 44.986L163.212 42.5733ZM177.689 40.0206L180.102 39.5952L180.527 42.008L178.114 42.4334L177.689 40.0206ZM184.927 38.7443L187.34 38.3189L187.765 40.7317L185.353 41.1571L184.927 38.7443ZM137.097 49.6659L141.923 48.815L142.348 51.2278L144.761 50.8023L145.186 53.2151L142.774 53.6405L142.348 51.2278L139.935 51.6532L140.361 54.066L137.948 54.4914L137.097 49.6659ZM149.161 47.5387L151.574 47.1132L151.999 49.526L154.412 49.1006L154.837 51.5133L147.599 52.7897L147.174 50.3769L149.586 49.9514L149.161 47.5387ZM38.5986 69.5216L41.0114 69.0962L41.4368 71.5089L39.024 71.9344L38.5986 69.5216ZM195.429 41.8681L197.842 41.4427L198.267 43.8555L195.855 44.2809L195.429 41.8681ZM46.2623 70.6581L48.6751 70.2326L49.526 75.0582L51.9388 74.6327L52.7897 79.4583L50.3769 79.8837L49.526 75.0582L47.1132 75.4836L46.2623 70.6581ZM108.995 59.5967L111.407 59.1712L111.833 61.584L109.42 62.0094L108.995 59.5967ZM104.594 62.8603L107.007 62.4349L107.433 64.8477L105.02 65.2731L104.594 62.8603ZM152.85 54.3516L155.263 53.9261L155.688 56.3389L153.275 56.7643L152.85 54.3516ZM35.4748 80.0236L37.8875 79.5981L38.313 82.0109L35.9002 82.4364L35.4748 80.0236ZM57.1898 76.1946L59.6026 75.7692L60.4534 80.5948L58.0407 81.0202L57.1898 76.1946ZM153.701 59.1771L156.114 58.7517L156.539 61.1645L154.126 61.5899L153.701 59.1771ZM165.765 57.0499L168.178 56.6245L168.603 59.0373L166.19 59.4627L165.765 57.0499ZM185.067 53.6464L187.48 53.221L187.905 55.6338L185.492 56.0592L185.067 53.6464ZM192.305 52.3701L194.718 51.9447L195.569 56.7702L193.156 57.1957L194.858 66.8468L197.271 66.4213L198.122 71.2469L200.534 70.8215L200.96 73.2342L198.547 73.6597L199.823 80.898L197.411 81.3235L197.836 83.7362L195.423 84.1617L195.849 86.5745L193.436 86.9999L195.138 96.651L192.725 97.0764L191.023 87.4253L193.436 86.9999L193.011 84.5871L195.423 84.1617L194.998 81.7489L197.411 81.3235L196.134 74.0851L198.547 73.6597L198.122 71.2469L195.709 71.6723L194.858 66.8468L192.445 67.2722L190.743 57.6211L193.156 57.1957L192.305 52.3701ZM43.1385 81.16L45.5513 80.7346L45.9768 83.1474L43.564 83.5728L43.1385 81.16ZM84.1558 73.9276L86.5686 73.5022L86.994 75.9149L84.5812 76.3404L84.1558 73.9276ZM89.4068 75.4895L91.8196 75.0641L92.245 77.4768L89.8322 77.9023L89.4068 75.4895ZM96.6451 74.2132L99.0579 73.7878L99.4833 76.2005L104.309 75.3497L103.883 72.9369L106.296 72.5114L106.722 74.9242L111.547 74.0733L111.973 76.4861L114.385 76.0607L113.96 73.6479L116.373 73.2225L116.798 75.6352L119.211 75.2098L118.786 72.797L123.611 71.9461L124.037 74.3589L126.449 73.9335L126.024 71.5207L128.437 71.0953L128.862 73.5081L131.275 73.0826L131.7 75.4954L134.113 75.07L134.964 79.8955L137.377 79.4701L138.228 84.2956L140.64 83.8702L141.491 88.6958L143.904 88.2703L144.33 90.6831L146.742 90.2577L146.317 87.8449L148.73 87.4194L149.581 92.245L147.168 92.6704L147.593 95.0832L150.006 94.6578L150.431 97.0706L148.019 97.496L149.72 107.147L152.133 106.722L152.559 109.134L154.971 108.709L154.546 106.296L156.959 105.871L157.384 108.284L159.797 107.858L160.222 110.271L162.635 109.845L163.486 114.671L161.073 115.096L161.499 117.509L159.086 117.935L159.511 120.347L157.099 120.773L157.524 123.186L155.111 123.611L154.686 121.198L152.273 121.624L152.698 124.037L147.873 124.887L147.447 122.475L145.035 122.9L145.46 125.313L140.635 126.164L139.784 121.338L137.371 121.764L136.52 116.938L134.107 117.364L134.533 119.776L132.12 120.202L131.694 117.789L129.282 118.214L130.133 123.04L127.72 123.465L127.294 121.053L120.056 122.329L119.631 119.916L117.218 120.342L116.792 117.929L114.38 118.354L113.954 115.941L116.367 115.516L115.516 110.69L117.929 110.265L119.205 117.503L121.618 117.078L122.043 119.491L124.456 119.065L123.605 114.24L126.018 113.814L126.443 116.227L128.856 115.802L128.431 113.389L130.844 112.963L130.418 110.551L132.831 110.125L133.256 112.538L138.082 111.687L137.656 109.274L135.244 109.7L134.818 107.287L137.231 106.862L137.656 109.274L140.069 108.849L140.495 111.262L142.907 110.836L143.333 113.249L145.746 112.824L144.895 107.998L147.308 107.573L146.457 102.747L144.044 103.172L142.342 93.5213L137.517 94.3722L137.091 91.9594L134.678 92.3848L134.253 89.9721L127.015 91.2484L125.738 84.01L123.326 84.4355L123.751 86.8483L121.338 87.2737L120.913 84.8609L116.087 85.7118L116.513 88.1246L118.925 87.6991L119.351 90.1119L121.764 89.6865L122.189 92.0993L119.776 92.5247L119.351 90.1119L116.938 90.5374L116.513 88.1246L114.1 88.55L114.951 93.3756L117.364 92.9501L118.64 100.188L121.053 99.763L121.478 102.176L119.065 102.601L118.64 100.188L116.227 100.614L114.951 93.3756L112.538 93.801L112.963 96.2138L110.551 96.6392L110.125 94.2264L112.538 93.801L111.262 86.5627L108.849 86.9881L108.423 84.5753L106.011 85.0008L105.585 82.588L100.76 83.4389L100.334 81.0261L97.9214 81.4515L97.496 79.0387L99.9088 78.6133L99.4833 76.2005L97.0706 76.626L96.6451 74.2132ZM120.487 82.4481L120.913 84.8609L123.326 84.4355L122.9 82.0227L120.487 82.4481ZM125.313 81.5973L125.738 84.01L128.151 83.5846L127.726 81.1718L125.313 81.5973ZM147.308 107.573L147.733 109.985L150.146 109.56L149.72 107.147L147.308 107.573ZM152.139 64.4281L156.965 63.5772L157.39 65.99L164.628 64.7137L164.203 62.3009L166.616 61.8755L167.041 64.2883L171.867 63.4374L172.292 65.8502L174.705 65.4247L175.556 70.2503L177.969 69.8248L178.394 72.2376L175.981 72.6631L176.407 75.0758L173.994 75.5013L173.568 73.0885L166.33 74.3648L165.905 71.952L163.492 72.3775L162.641 67.5519L160.228 67.9774L160.654 70.3901L153.415 71.6665L153.841 74.0792L149.015 74.9301L148.164 70.1045L150.577 69.6791L150.152 67.2663L152.564 66.8409L152.139 64.4281ZM165.479 69.5393L165.905 71.952L168.317 71.5266L167.892 69.1138L165.479 69.5393ZM51.2278 84.7093L53.6405 84.2839L54.066 86.6966L51.6532 87.1221L52.0786 89.5348L49.6659 89.9603L50.0913 92.3731L47.6785 92.7985L47.2531 90.3857L49.6659 89.9603L49.2404 87.5475L51.6532 87.1221L51.2278 84.7093ZM85.0067 78.7532L87.4194 78.3277L87.8449 80.7405L85.4321 81.1659L85.0067 78.7532ZM29.9382 90.951L32.351 90.5256L32.7764 92.9384L30.3636 93.3638L29.9382 90.951ZM56.4787 86.2712L58.8915 85.8458L59.317 88.2585L56.9042 88.684L56.4787 86.2712ZM63.7171 84.9949L66.1299 84.5694L66.5553 86.9822L64.1425 87.4077L63.7171 84.9949ZM198.833 61.1703L201.245 60.7449L201.671 63.1577L199.258 63.5831L198.833 61.1703ZM23.1253 94.6401L25.5381 94.2147L25.9635 96.6274L23.5507 97.0529L23.1253 94.6401ZM40.0147 91.662L42.4275 91.2366L43.2784 96.0622L40.8656 96.4876L40.0147 91.662ZM66.9807 89.395L69.3935 88.9696L69.819 91.3823L67.4062 91.8078L66.9807 89.395ZM86.7084 88.4043L89.1212 87.9788L89.5466 90.3916L94.3722 89.5407L93.9467 87.128L96.3595 86.7025L96.785 89.1153L99.1977 88.6899L100.049 93.5154L97.6358 93.9409L98.0613 96.3536L95.6485 96.7791L96.9248 104.017L99.3376 103.592L99.763 106.005L102.176 105.579L103.027 110.405L100.614 110.83L99.763 106.005L97.3503 106.43L96.9248 104.017L94.512 104.443L94.0866 102.03L89.261 102.881L90.1119 107.707L92.5247 107.281L92.9501 109.694L90.5374 110.119L90.9628 112.532L93.3756 112.107L93.801 114.519L96.2138 114.094L95.7883 111.681L98.2011 111.256L98.6266 113.669L101.039 113.243L101.89 118.069L99.4774 118.494L100.754 125.732L103.167 125.307L103.592 127.72L106.005 127.294L104.728 120.056L107.141 119.631L106.716 117.218L104.303 117.643L103.878 115.23L106.29 114.805L106.716 117.218L109.129 116.792L109.554 119.205L107.141 119.631L107.567 122.043L109.979 121.618L110.83 126.443L108.418 126.869L108.843 129.282L106.43 129.707L106.856 132.12L104.443 132.545L104.868 134.958L100.043 135.809L99.6173 133.396L97.2045 133.822L96.3536 128.996L93.9409 129.422L93.09 124.596L90.6772 125.021L90.2518 122.609L85.4262 123.459L84.5753 118.634L86.9881 118.208L86.1372 113.383L88.55 112.958L88.1246 110.545L90.5374 110.119L90.1119 107.707L85.2864 108.557L84.8609 106.145L80.0354 106.995L79.6099 104.583L82.0227 104.157L81.1718 99.3317L83.5846 98.9063L83.1592 96.4935L87.9847 95.6426L87.5593 93.2298L85.1465 93.6553L84.7211 91.2425L87.1338 90.8171L86.7084 88.4043ZM87.1338 90.8171L87.5593 93.2298L89.9721 92.8044L89.5466 90.3916L87.1338 90.8171ZM83.5846 98.9063L84.01 101.319L86.4228 100.894L85.9974 98.4808L83.5846 98.9063ZM180.807 71.8122L183.22 71.3868L183.645 73.7995L186.058 73.3741L186.909 78.1997L184.496 78.6251L184.921 81.0379L182.509 81.4633L182.083 79.0505L184.496 78.6251L183.645 73.7995L181.232 74.225L180.807 71.8122ZM202.522 67.9832L204.935 67.5578L205.36 69.9706L202.947 70.396L202.522 67.9832ZM17.1633 103.155L19.576 102.729L20.0015 105.142L17.5887 105.568L17.1633 103.155ZM34.0527 100.177L36.4655 99.7513L36.8909 102.164L34.4782 102.589L34.9036 105.002L32.4908 105.428L32.0654 103.015L34.4782 102.589L34.0527 100.177ZM48.5294 97.6241L50.9422 97.1986L51.3676 99.6114L48.9548 100.037L48.5294 97.6241ZM16.0268 110.819L18.4396 110.393L18.865 112.806L16.4522 113.231L16.0268 110.819ZM23.2651 109.542L25.6779 109.117L26.5288 113.942L28.9416 113.517L29.367 115.93L31.7798 115.504L32.2052 117.917L34.618 117.492L35.0434 119.904L32.6307 120.33L32.2052 117.917L29.7924 118.342L29.367 115.93L26.9542 116.355L26.5288 113.942L24.116 114.368L23.2651 109.542ZM32.9162 107.84L37.7418 106.99L38.1672 109.402L33.3417 110.253L32.9162 107.84ZM120.202 94.9375L122.615 94.512L123.04 96.9248L125.453 96.4994L126.304 101.325L123.891 101.75L123.04 96.9248L120.627 97.3503L120.202 94.9375ZM45.831 110.539L48.2438 110.113L48.6692 112.526L46.2565 112.952L45.831 110.539ZM108.563 99.4774L110.976 99.052L111.401 101.465L113.814 101.039L114.24 103.452L111.827 103.878L111.401 101.465L108.989 101.89L108.563 99.4774ZM130.704 98.0613L133.116 97.6358L133.542 100.049L131.129 100.474L130.704 98.0613ZM166.895 91.6797L171.721 90.8288L172.146 93.2416L169.734 93.667L170.584 98.4926L172.997 98.0672L173.423 100.48L175.835 100.055L176.261 102.467L181.086 101.616L181.512 104.029L183.925 103.604L184.35 106.017L189.176 105.166L189.601 107.578L192.014 107.153L193.29 114.391L190.877 114.817L190.027 109.991L180.375 111.693L180.801 114.106L183.214 113.68L184.065 118.506L186.477 118.08L186.903 120.493L184.49 120.919L184.065 118.506L181.652 118.931L182.077 121.344L174.839 122.62L175.264 125.033L172.852 125.459L173.277 127.871L175.69 127.446L176.115 129.859L178.528 129.433L179.379 134.259L181.792 133.833L182.642 138.659L185.055 138.234L185.481 140.646L183.068 141.072L183.493 143.485L185.906 143.059L187.608 152.71L185.195 153.136L185.621 155.548L183.208 155.974L182.782 153.561L185.195 153.136L184.77 150.723L177.531 151.999L177.106 149.586L169.868 150.863L169.442 148.45L171.855 148.024L171.004 143.199L173.417 142.774L172.566 137.948L170.153 138.373L169.302 133.548L166.89 133.973L165.613 126.735L168.026 126.309L167.601 123.897L172.426 123.046L172.001 120.633L176.826 119.782L176.401 117.369L178.814 116.944L177.963 112.118L180.375 111.693L179.525 106.867L174.699 107.718L173.848 102.893L169.023 103.744L168.597 101.331L166.184 101.756L165.759 99.3435L163.346 99.7689L162.921 97.3561L165.333 96.9307L164.908 94.5179L167.321 94.0925L166.895 91.6797ZM201.1 88.1364L203.513 87.7109L203.938 90.1237L201.525 90.5491L201.1 88.1364ZM117.078 105.439L119.491 105.014L119.916 107.427L117.503 107.852L117.078 105.439ZM25.8178 124.019L28.2305 123.593L28.656 126.006L26.2432 126.432L25.8178 124.019ZM42.7072 121.041L45.12 120.615L45.5454 123.028L43.1327 123.454L42.7072 121.041ZM62.0094 117.637L64.4222 117.212L65.2731 122.037L58.0348 123.314L58.4602 125.727L53.6346 126.577L53.2092 124.165L58.0348 123.314L57.6093 120.901L62.4349 120.05L62.0094 117.637ZM124.742 106.576L127.154 106.15L127.58 108.563L125.167 108.989L124.742 106.576ZM33.4815 125.155L35.8943 124.73L36.3198 127.143L33.907 127.568L33.4815 125.155ZM199.963 95.8001L202.376 95.3747L202.801 97.7875L200.389 98.2129L199.963 95.8001ZM27.0941 131.257L29.5069 130.832L29.9323 133.245L27.5195 133.67L27.0941 131.257ZM41.5707 128.705L43.9835 128.279L44.409 130.692L51.6473 129.416L52.0727 131.828L49.66 132.254L50.0854 134.667L52.4982 134.241L52.9236 136.654L57.7492 135.803L58.1746 138.216L67.8257 136.514L68.2512 138.927L61.0128 140.203L61.4383 142.616L54.1999 143.892L53.7745 141.48L48.9489 142.33L48.5235 139.918L46.1107 140.343L44.409 130.692L41.9962 131.117L41.5707 128.705ZM198.401 101.051L200.814 100.626L201.24 103.038L203.652 102.613L204.503 107.439L206.916 107.013L207.341 109.426L204.929 109.851L204.503 107.439L202.09 107.864L201.24 103.038L198.827 103.464L198.401 101.051ZM28.3704 138.496L30.7832 138.07L31.2086 140.483L28.7958 140.908L28.3704 138.496ZM69.8131 133.676L74.6386 132.825L75.0641 135.238L70.2385 136.089L69.8131 133.676ZM202.941 112.69L205.354 112.264L206.63 119.502L204.218 119.928L204.643 122.341L202.23 122.766L202.656 125.179L200.243 125.604L200.668 128.017L198.256 128.443L199.107 133.268L196.694 133.694L197.119 136.106L199.532 135.681L200.383 140.506L197.97 140.932L198.395 143.345L200.808 142.919L201.234 145.332L198.821 145.757L199.246 148.17L201.659 147.745L202.085 150.158L199.672 150.583L200.097 152.996L197.684 153.421L197.259 151.008L199.672 150.583L199.246 148.17L196.834 148.596L196.408 146.183L198.821 145.757L198.395 143.345L195.983 143.77L195.557 141.357L197.97 140.932L197.119 136.106L194.706 136.532L194.281 134.119L196.694 133.694L195.843 128.868L198.256 128.443L197.83 126.03L200.243 125.604L199.818 123.192L202.23 122.766L201.805 120.353L204.218 119.928L202.941 112.69ZM27.2339 146.159L29.6467 145.734L30.0721 148.147L27.6594 148.572L27.2339 146.159ZM193.716 116.804L196.128 116.379L196.554 118.791L194.141 119.217L193.716 116.804ZM210.605 113.826L213.018 113.401L213.443 115.813L211.031 116.239L210.605 113.826ZM39.7233 146.445L42.136 146.019L42.5615 148.432L40.1487 148.858L39.7233 146.445ZM87.9788 137.936L90.3916 137.511L90.8171 139.924L93.2298 139.498L94.0807 144.324L91.6679 144.749L90.8171 139.924L88.4043 140.349L87.9788 137.936ZM59.4509 145.454L61.8637 145.029L63.14 152.267L60.7272 152.693L61.1527 155.105L58.7399 155.531L58.3145 153.118L60.7272 152.693L59.4509 145.454ZM131.834 132.691L134.247 132.266L134.673 134.678L132.26 135.104L132.685 137.517L130.272 137.942L130.698 140.355L135.523 139.504L137.225 149.155L134.812 149.581L134.387 147.168L131.974 147.593L131.123 142.768L128.71 143.193L127.86 138.367L130.272 137.942L129.847 135.529L132.26 135.104L131.834 132.691ZM192.154 122.055L194.567 121.63L194.992 124.042L192.579 124.468L192.154 122.055ZM21.2719 154.674L23.6847 154.249L24.1101 156.661L21.6973 157.087L21.2719 154.674ZM35.7486 152.121L38.1614 151.696L38.5868 154.109L36.174 154.534L35.7486 152.121ZM182.928 126.17L185.341 125.744L185.766 128.157L183.354 128.582L182.928 126.17ZM87.2678 148.013L92.0934 147.162L92.5188 149.575L97.3444 148.724L97.7698 151.137L95.357 151.562L96.2079 156.388L93.7951 156.813L94.2206 159.226L91.8078 159.651L91.3823 157.238L88.9696 157.664L89.395 160.077L82.1567 161.353L81.3058 156.527L83.7186 156.102L82.8677 151.276L87.6932 150.425L87.2678 148.013ZM29.7866 160.636L32.1993 160.211L32.6248 162.623L35.0375 162.198L35.8884 167.023L33.4756 167.449L32.6248 162.623L30.212 163.049L29.7866 160.636ZM53.9143 156.382L56.3271 155.956L56.7526 158.369L54.3398 158.794L53.9143 156.382ZM39.8631 161.347L42.2759 160.922L43.1268 165.747L40.714 166.173L39.8631 161.347ZM47.1014 160.071L49.5142 159.645L49.9397 162.058L47.5269 162.484L47.1014 160.071ZM69.2419 158.655L71.6547 158.229L72.0801 160.642L74.4929 160.216L74.9183 162.629L79.7439 161.778L80.1693 164.191L82.5821 163.766L83.433 168.591L81.0202 169.017L80.5948 166.604L78.182 167.029L77.7565 164.617L75.3438 165.042L74.9183 162.629L72.5055 163.055L72.0801 160.642L69.6673 161.067L69.2419 158.655ZM55.1907 163.62L57.6034 163.195L58.0289 165.607L55.6161 166.033L55.1907 163.62ZM48.3778 167.309L50.7905 166.884L51.216 169.296L48.8032 169.722L48.3778 167.309ZM41.5649 170.998L43.9776 170.573L44.4031 172.985L41.9903 173.411L41.5649 170.998ZM52.0668 174.122L54.4796 173.697L54.9051 176.109L52.4923 176.535L52.0668 174.122ZM62.1434 174.833L64.5562 174.408L64.9816 176.82L62.5688 177.246L62.1434 174.833ZM96.3477 171.29L98.7605 170.864L99.6114 175.69L102.024 175.264L102.45 177.677L104.862 177.252L104.437 174.839L106.85 174.413L107.275 176.826L112.101 175.975L112.526 178.388L117.352 177.537L117.777 179.95L120.19 179.525L119.765 177.112L127.003 175.835L127.428 178.248L129.841 177.823L129.416 175.41L131.828 174.985L132.254 177.397L134.667 176.972L134.241 174.559L136.654 174.134L136.229 171.721L138.641 171.296L139.067 173.708L136.654 174.134L137.079 176.547L134.667 176.972L135.517 181.798L130.692 182.648L131.117 185.061L128.705 185.487L128.279 183.074L125.866 183.499L126.717 188.325L124.304 188.75L123.879 186.337L121.466 186.763L121.892 189.176L119.479 189.601L119.053 187.188L116.641 187.614L116.215 185.201L111.39 186.052L110.964 183.639L108.551 184.065L108.126 181.652L105.713 182.077L106.139 184.49L101.313 185.341L100.888 182.928L96.0622 183.779L95.6367 181.366L98.0495 180.941L97.6241 178.528L95.2113 178.953L94.7858 176.541L92.3731 176.966L92.7985 179.379L90.3857 179.804L89.9603 177.392L92.3731 176.966L91.9476 174.553L96.7732 173.702L96.3477 171.29ZM120.615 181.937L121.041 184.35L123.454 183.925L123.028 181.512L120.615 181.937ZM127.854 180.661L128.279 183.074L130.692 182.648L130.266 180.236L127.854 180.661ZM67.8198 178.808L70.2326 178.382L70.6581 180.795L73.0708 180.37L73.4963 182.782L71.0835 183.208L70.6581 180.795L68.2453 181.22L67.8198 178.808ZM186.046 157.961L188.459 157.536L188.884 159.949L186.471 160.374L186.046 157.961ZM193.284 156.685L195.697 156.259L196.123 158.672L193.71 159.098L194.135 161.51L191.722 161.936L191.297 159.523L193.71 159.098L193.284 156.685ZM75.4836 179.944L77.8964 179.519L78.3218 181.931L80.7346 181.506L81.16 183.919L78.7473 184.344L78.3218 181.931L75.909 182.357L75.4836 179.944ZM179.233 161.65L181.646 161.225L182.071 163.638L179.659 164.063L179.233 161.65ZM203.361 157.396L205.774 156.97L206.199 159.383L203.786 159.809L203.361 157.396ZM170.007 165.765L172.42 165.339L172.846 167.752L170.433 168.178L170.007 165.765ZM184.484 163.212L186.897 162.787L187.322 165.2L184.91 165.625L184.484 163.212ZM83.5728 183.493L85.9856 183.068L86.411 185.481L88.8238 185.055L90.1001 192.294L92.5129 191.868L93.3638 196.694L95.7766 196.268L96.202 198.681L98.6148 198.256L99.0402 200.668L101.453 200.243L101.878 202.656L99.4657 203.081L99.0402 200.668L96.6274 201.094L96.202 198.681L93.7892 199.107L93.3638 196.694L90.951 197.119L90.1001 192.294L87.6874 192.719L86.411 185.481L83.9983 185.906L83.5728 183.493ZM149.143 174.419L153.969 173.568L154.394 175.981L156.807 175.556L156.382 173.143L158.794 172.718L160.071 179.956L157.658 180.381L158.083 182.794L153.258 183.645L152.832 181.232L150.42 181.658L149.994 179.245L147.581 179.67L147.156 177.258L149.569 176.832L149.143 174.419ZM152.407 178.819L152.832 181.232L155.245 180.807L154.82 178.394L152.407 178.819ZM178.097 169.314L180.509 168.889L180.935 171.301L178.522 171.727L178.097 169.314ZM77.1854 189.595L79.5981 189.17L80.0236 191.583L77.6108 192.008L77.1854 189.595ZM139.918 178.534L142.33 178.108L143.181 182.934L140.768 183.359L139.918 178.534ZM171.284 173.003L173.697 172.578L174.122 174.991L171.709 175.416L174.262 189.893L171.849 190.318L172.274 192.731L169.862 193.156L169.436 190.743L171.849 190.318L169.296 175.841L171.709 175.416L171.284 173.003ZM185.76 170.451L188.173 170.025L188.599 172.438L186.186 172.863L185.76 170.451ZM179.373 176.552L181.786 176.127L182.211 178.54L179.798 178.965L179.373 176.552ZM100.177 193.005L102.589 192.579L103.015 194.992L100.602 195.417L100.177 193.005ZM108.266 196.554L110.679 196.128L111.104 198.541L113.517 198.116L114.368 202.941L111.955 203.367L111.104 198.541L108.691 198.967L109.117 201.379L106.704 201.805L106.279 199.392L108.691 198.967L108.266 196.554ZM139.632 191.023L142.045 190.598L142.47 193.011L140.057 193.436L139.632 191.023ZM144.458 190.172L146.87 189.747L147.296 192.16L149.709 191.734L150.559 196.56L148.147 196.985L147.296 192.16L144.883 192.585L144.458 190.172ZM135.232 194.287L137.645 193.861L138.07 196.274L135.657 196.7L135.232 194.287ZM154.534 190.883L156.947 190.458L157.372 192.871L154.96 193.296L154.534 190.883ZM118.768 199.678L121.181 199.252L121.606 201.665L119.193 202.09L119.619 204.503L117.206 204.929L116.781 202.516L119.193 202.09L118.768 199.678ZM130.832 197.551L133.245 197.125L133.67 199.538L131.257 199.963L130.832 197.551ZM124.019 201.24L126.432 200.814L126.857 203.227L124.444 203.652L124.019 201.24ZM152.972 196.134L155.385 195.709L155.81 198.122L153.398 198.547L152.972 196.134ZM100.317 207.907L102.729 207.481L103.155 209.894L100.742 210.32L100.317 207.907ZM138.921 201.1L141.334 200.674L141.759 203.087L139.346 203.513L138.921 201.1ZM132.108 204.789L134.521 204.363L134.946 206.776L132.534 207.202L132.108 204.789ZM170.713 197.982L173.125 197.556L173.551 199.969L171.138 200.395L170.713 197.982ZM120.47 209.329L122.882 208.903L123.308 211.316L120.895 211.742L120.47 209.329Z" fill="#5F9CD6"/>
<path d="M85.7236 26.3831L90.5491 25.5322L90.9746 27.945L86.149 28.7958L86.5745 31.2086L84.1617 31.6341L84.5871 34.0468L82.1743 34.4723L81.7489 32.0595L84.1617 31.6341L83.7362 29.2213L86.149 28.7958L85.7236 26.3831ZM96.2256 29.5069L101.051 28.656L101.477 31.0688L96.651 31.9196L96.2256 29.5069ZM134.83 22.6999L139.656 21.849L140.081 24.2618L135.255 25.1126L135.681 27.5254L133.268 27.9509L133.694 30.3636L131.281 30.7891L131.706 33.2019L129.293 33.6273L129.719 36.0401L124.893 36.8909L124.468 34.4782L129.293 33.6273L128.868 31.2145L131.281 30.7891L130.855 28.3763L133.268 27.9509L132.843 25.5381L135.255 25.1126L134.83 22.6999ZM142.494 23.8363L147.319 22.9854L147.745 25.3982L142.919 26.2491L142.494 23.8363ZM82.5998 36.8851L85.0126 36.4596L85.8634 41.2852L83.4506 41.7106L82.5998 36.8851ZM101.902 33.4815L104.315 33.0561L104.74 35.4689L102.327 35.8943L101.902 33.4815ZM106.728 32.6307L109.14 32.2052L109.566 34.618L107.153 35.0435L106.728 32.6307ZM111.553 31.7798L113.966 31.3544L114.391 33.7671L111.979 34.1926L111.553 31.7798ZM90.2635 38.0215L92.6763 37.5961L93.1018 40.0089L90.689 40.4343L90.2635 38.0215ZM116.804 33.3417L119.217 32.9163L119.642 35.329L122.055 34.9036L122.481 37.3164L120.068 37.7418L119.642 35.329L117.23 35.7545L116.804 33.3417ZM88.7016 43.2725L91.1144 42.8471L91.5399 45.2599L93.9526 44.8344L93.5272 42.4216L95.94 41.9962L96.3654 44.409L98.7782 43.9835L99.2036 46.3963L104.029 45.5454L104.455 47.9582L102.042 48.3837L102.467 50.7964L100.055 51.2219L99.2036 46.3963L96.7909 46.8218L97.2163 49.2345L92.3907 50.0854L92.8162 52.4982L95.229 52.0728L95.6544 54.4855L90.8288 55.3364L91.2543 57.7492L88.8415 58.1746L88.4161 55.7618L86.0033 56.1873L86.4287 58.6001L84.0159 59.0255L83.5905 56.6127L78.7649 57.4636L78.3395 55.0508L73.5139 55.9017L72.6631 51.0761L67.8375 51.927L67.4121 49.5142L72.2376 48.6634L72.6631 51.0761L75.0758 50.6507L75.5013 53.0635L77.9141 52.638L78.3395 55.0508L80.7523 54.6254L79.9014 49.7998L82.3142 49.3744L82.7396 51.7872L85.1524 51.3617L84.727 48.9489L87.1397 48.5235L86.7143 46.1107L89.1271 45.6853L88.7016 43.2725ZM93.9526 44.8344L94.3781 47.2472L96.7909 46.8218L96.3654 44.409L93.9526 44.8344ZM89.5525 48.0981L89.978 50.5109L92.3907 50.0854L91.9653 47.6726L89.5525 48.0981ZM87.5652 50.9363L87.9906 53.3491L90.4034 52.9236L89.978 50.5109L87.5652 50.9363ZM110.417 39.4436L112.829 39.0181L113.255 41.4309L110.842 41.8564L110.417 39.4436ZM136.957 34.7638L139.37 34.3383L139.795 36.7511L137.383 37.1765L137.808 39.5893L135.395 40.0147L134.97 37.602L137.383 37.1765L136.957 34.7638ZM154.698 36.6112L157.11 36.1858L157.536 38.5986L159.949 38.1731L160.374 40.5859L162.787 40.1605L163.212 42.5733L160.799 42.9987L160.374 40.5859L157.961 41.0114L157.536 38.5986L155.123 39.024L154.698 36.6112ZM44.1352 58.5942L46.5479 58.1687L46.9734 60.5815L44.5606 61.007L44.986 63.4197L42.5733 63.8452L42.1478 61.4324L44.5606 61.007L44.1352 58.5942ZM51.7989 59.7306L54.2117 59.3052L54.6371 61.718L61.8755 60.4417L62.3009 62.8544L64.7137 62.429L63.8628 57.6034L68.6884 56.7526L69.1138 59.1654L71.5266 58.7399L71.952 61.1527L69.5393 61.5781L69.9647 63.9909L67.5519 64.4163L68.4028 69.2419L65.99 69.6673L66.4155 72.0801L68.8282 71.6547L69.2537 74.0675L66.8409 74.4929L67.6918 79.3185L70.1045 78.893L70.53 81.3058L72.9428 80.8804L73.3682 83.2931L70.9554 83.7186L71.8063 88.5441L74.2191 88.1187L74.6445 90.5315L72.2317 90.9569L71.8063 88.5441L66.9807 89.395L66.5553 86.9822L68.9681 86.5568L68.5426 84.144L66.1299 84.5695L65.7044 82.1567L63.2916 82.5821L62.8662 80.1693L60.4534 80.5948L59.6026 75.7692L62.0153 75.3438L61.1645 70.5182L58.7517 70.9437L58.3262 68.5309L60.739 68.1054L60.3136 65.6927L57.9008 66.1181L57.4754 63.7053L55.0626 64.1308L54.6371 61.718L52.2244 62.1434L51.7989 59.7306ZM64.7137 62.429L65.1391 64.8418L67.5519 64.4163L67.1265 62.0036L64.7137 62.429ZM60.739 68.1054L61.1645 70.5182L63.5772 70.0928L63.1518 67.68L60.739 68.1054ZM62.0153 75.3438L62.4408 77.7566L64.8536 77.3311L64.4281 74.9183L62.0153 75.3438ZM68.1172 81.7312L68.5426 84.144L70.9554 83.7186L70.53 81.3058L68.1172 81.7312ZM119.357 47.8184L121.77 47.3929L122.195 49.8057L119.782 50.2312L119.357 47.8184ZM127.021 48.9548L129.433 48.5294L129.859 50.9422L127.446 51.3676L127.021 48.9548ZM141.497 46.4022L143.91 45.9768L144.335 48.3896L141.923 48.815L141.497 46.4022ZM148.736 45.1259L151.148 44.7005L151.574 47.1132L149.161 47.5387L149.586 49.9515L147.174 50.3769L147.599 52.7897L154.837 51.5134L155.263 53.9261L152.85 54.3516L153.701 59.1771L151.288 59.6026L151.714 62.0153L154.126 61.5899L154.552 64.0027L149.726 64.8536L150.577 69.6791L145.752 70.53L145.326 68.1172L142.913 68.5427L142.488 66.1299L144.901 65.7044L145.326 68.1172L147.739 67.6918L146.463 60.4534L148.875 60.028L148.45 57.6152L150.863 57.1898L150.437 54.777L143.199 56.0533L143.624 58.4661L141.212 58.8915L141.637 61.3043L139.224 61.7298L138.799 59.317L141.212 58.8915L140.786 56.4788L133.548 57.7551L133.973 60.1679L131.56 60.5933L131.135 58.1805L128.722 58.606L128.297 56.1932L130.71 55.7677L130.284 53.355L135.11 52.5041L134.684 50.0913L137.097 49.6659L137.948 54.4914L140.361 54.066L139.935 51.6532L142.348 51.2278L142.774 53.6405L145.186 53.2151L144.761 50.8023L147.174 50.3769L146.748 47.9641L149.161 47.5387L148.736 45.1259ZM130.71 55.7677L131.135 58.1805L133.548 57.7551L133.122 55.3423L130.71 55.7677ZM45.4115 65.8325L47.8243 65.4071L48.6751 70.2326L46.2623 70.6581L45.4115 65.8325ZM173.714 45.6971L178.54 44.8462L178.965 47.259L174.14 48.1099L173.714 45.6971ZM180.953 44.4208L185.778 43.5699L186.204 45.9827L181.378 46.8335L180.953 44.4208ZM96.9307 61.7239L99.3435 61.2984L99.7689 63.7112L102.182 63.2858L102.607 65.6986L100.194 66.124L99.7689 63.7112L97.3561 64.1367L96.9307 61.7239ZM169.314 48.9607L171.727 48.5353L172.152 50.9481L169.74 51.3735L169.314 48.9607ZM188.616 45.5572L191.029 45.1318L191.455 47.5446L189.042 47.97L188.616 45.5572ZM172.578 53.3608L174.991 52.9354L175.416 55.3482L177.829 54.9228L178.254 57.3355L175.841 57.761L175.416 55.3482L173.003 55.7736L172.578 53.3608ZM191.88 49.9573L194.293 49.5319L194.718 51.9447L192.305 52.3701L191.88 49.9573ZM158.526 58.3263L160.939 57.9008L161.365 60.3136L158.952 60.739L158.526 58.3263ZM47.9641 80.3092L50.3769 79.8837L50.8023 82.2965L48.3895 82.722L47.9641 80.3092ZM168.603 59.0373L171.016 58.6118L171.441 61.0246L169.028 61.4501L168.603 59.0373ZM41.1512 83.9983L43.564 83.5728L43.9894 85.9856L41.5766 86.4111L42.0021 88.8238L39.5893 89.2493L39.1639 86.8365L41.5766 86.4111L41.1512 83.9983ZM173.854 60.5992L176.267 60.1737L176.692 62.5865L174.279 63.012L173.854 60.5992ZM54.066 86.6966L56.4788 86.2712L56.9042 88.684L59.317 88.2586L59.7424 90.6713L62.1552 90.2459L62.5806 92.6587L64.9934 92.2332L65.4188 94.646L63.0061 95.0714L62.5806 92.6587L60.1678 93.0841L59.7424 90.6713L57.3296 91.0968L58.1805 95.9223L55.7677 96.3478L55.3423 93.935L52.9295 94.3604L52.0786 89.5349L54.4914 89.1094L54.066 86.6966ZM160.228 67.9774L162.641 67.5519L163.066 69.9647L160.654 70.3902L161.505 75.2157L159.092 75.6411L158.666 73.2284L156.254 73.6538L155.828 71.241L160.654 70.3902L160.228 67.9774ZM174.705 65.4247L177.118 64.9993L177.543 67.4121L175.13 67.8375L174.705 65.4247ZM45.2657 93.224L47.6785 92.7985L48.1039 95.2113L50.5167 94.7859L50.9422 97.1986L48.5294 97.6241L48.9548 100.037L51.3676 99.6114L51.793 102.024L54.2058 101.599L53.7804 99.186L56.1932 98.7605L56.6186 101.173L54.2058 101.599L55.0567 106.424L52.6439 106.85L53.0694 109.263L57.8949 108.412L58.3204 110.824L63.1459 109.974L63.5713 112.386L61.1586 112.812L61.584 115.225L63.9968 114.799L64.4222 117.212L62.0094 117.637L62.4349 120.05L60.0221 120.476L59.5967 118.063L57.1839 118.488L57.6093 120.901L55.1965 121.326L54.7711 118.914L57.1839 118.488L56.7584 116.075L54.3457 116.501L53.9202 114.088L51.5075 114.514L52.3583 119.339L49.9456 119.765L50.371 122.177L52.7838 121.752L53.2092 124.165L45.9709 125.441L46.3963 127.854L41.5707 128.705L40.7199 123.879L45.5454 123.028L45.12 120.615L49.9456 119.765L49.0947 114.939L46.6819 115.364L46.2565 112.952L43.8437 113.377L43.4182 110.964L38.5927 111.815L37.7418 106.99L35.329 107.415L34.9036 105.002L37.3164 104.577L36.8909 102.164L39.3037 101.739L38.4528 96.9131L40.8656 96.4876L41.291 98.9004L43.7038 98.475L43.2784 96.0622L45.6912 95.6367L45.2657 93.224ZM43.7038 98.475L44.1293 100.888L46.542 100.462L46.1166 98.0495L43.7038 98.475ZM41.7165 101.313L42.1419 103.726L39.7291 104.151L40.1546 106.564L42.5674 106.139L42.9928 108.552L45.4056 108.126L44.1293 100.888L41.7165 101.313ZM49.3803 102.45L50.2311 107.275L52.6439 106.85L51.793 102.024L49.3803 102.45ZM45.831 110.539L46.2565 112.952L48.6692 112.526L48.2438 110.113L45.831 110.539ZM50.6566 109.688L51.082 112.101L53.4948 111.675L53.0694 109.263L50.6566 109.688ZM48.6692 112.526L49.0947 114.939L51.5075 114.514L51.082 112.101L48.6692 112.526ZM100.76 83.4389L105.585 82.588L106.436 87.4136L111.262 86.5627L112.538 93.801L110.125 94.2265L110.976 99.052L108.563 99.4775L108.989 101.89L111.401 101.465L111.827 103.878L114.24 103.452L113.814 101.039L116.227 100.614L116.652 103.027L119.065 102.601L119.491 105.014L117.078 105.439L117.929 110.265L115.516 110.69L116.367 115.516L113.954 115.941L114.38 118.354L116.792 117.929L117.218 120.342L119.631 119.916L120.056 122.329L117.643 122.754L117.218 120.342L114.805 120.767L115.23 123.18L112.818 123.605L112.392 121.192L107.567 122.043L107.141 119.631L109.554 119.205L109.129 116.792L106.716 117.218L106.29 114.805L103.878 115.23L102.176 105.579L99.763 106.005L99.3376 103.592L96.9248 104.017L95.6485 96.7791L98.0613 96.3537L97.6358 93.9409L100.049 93.5154L99.1977 88.6899L96.785 89.1153L96.3595 86.7025L101.185 85.8517L100.76 83.4389ZM101.611 88.2644L102.461 93.09L100.049 93.5154L100.474 95.9282L98.0613 96.3537L98.4867 98.7664L100.899 98.341L101.325 100.754L103.738 100.328L102.887 95.5028L105.3 95.0773L104.874 92.6646L107.287 92.2391L106.436 87.4136L101.611 88.2644ZM107.287 92.2391L107.712 94.6519L110.125 94.2265L109.7 91.8137L107.287 92.2391ZM26.3889 99.0402L31.2145 98.1894L31.6399 100.602L26.8144 101.453L27.2398 103.866L24.827 104.291L25.2525 106.704L22.8397 107.129L22.4143 104.717L24.827 104.291L24.4016 101.878L26.8144 101.453L26.3889 99.0402ZM171.156 73.514L173.568 73.0885L173.994 75.5013L176.407 75.0759L175.981 72.6631L180.807 71.8122L181.232 74.225L183.645 73.7995L184.496 78.6251L179.67 79.476L180.521 84.3015L178.108 84.727L178.534 87.1398L176.121 87.5652L176.547 89.978L174.134 90.4034L173.708 87.9906L171.296 88.4161L170.87 86.0033L168.457 86.4287L169.308 91.2543L164.483 92.1052L164.908 94.5179L162.495 94.9434L162.921 97.3562L160.508 97.7816L160.083 95.3688L157.67 95.7943L157.244 93.3815L154.832 93.8069L156.108 101.045L158.521 100.62L159.797 107.858L162.21 107.433L162.635 109.845L167.461 108.995L167.886 111.407L165.473 111.833L165.899 114.246L163.486 114.671L163.911 117.084L166.324 116.658L166.75 119.071L169.162 118.646L168.737 116.233L171.15 115.808L171.575 118.22L173.988 117.795L173.137 112.969L175.55 112.544L175.124 110.131L172.712 110.557L172.286 108.144L169.873 108.569L169.448 106.156L171.861 105.731L171.435 103.318L173.848 102.893L174.699 107.718L179.525 106.867L179.95 109.28L177.537 109.706L177.963 112.118L175.55 112.544L175.975 114.957L178.388 114.531L178.814 116.944L173.988 117.795L174.413 120.208L169.588 121.059L170.013 123.471L167.601 123.897L166.75 119.071L164.337 119.497L163.911 117.084L161.499 117.509L161.073 115.096L163.486 114.671L162.635 109.845L160.222 110.271L159.797 107.858L157.384 108.284L156.959 105.871L154.546 106.296L154.971 108.709L152.559 109.134L152.133 106.722L149.72 107.147L148.019 97.496L150.431 97.0706L150.006 94.6578L147.593 95.0832L147.168 92.6705L149.581 92.245L148.73 87.4195L146.317 87.8449L146.742 90.2577L144.33 90.6831L143.904 88.2703L141.491 88.6958L140.64 83.8702L143.053 83.4448L142.628 81.032L145.041 80.6066L145.466 83.0193L147.879 82.5939L148.304 85.0067L153.13 84.1558L153.555 86.5686L158.381 85.7177L158.806 88.1305L161.219 87.705L161.644 90.1178L166.47 89.2669L166.045 86.8542L168.457 86.4287L168.032 84.016L170.445 83.5905L170.87 86.0033L173.283 85.5779L172.857 83.1651L177.683 82.3142L177.258 79.9014L179.67 79.476L179.245 77.0632L174.419 77.9141L174.845 80.3269L172.432 80.7523L172.007 78.3395L174.419 77.9141L173.994 75.5013L171.581 75.9267L171.156 73.514ZM143.053 83.4448L143.479 85.8576L145.891 85.4321L145.466 83.0193L143.053 83.4448ZM156.393 88.5559L157.244 93.3815L159.657 92.956L160.083 95.3688L162.495 94.9434L161.644 90.1178L159.232 90.5433L158.806 88.1305L156.393 88.5559ZM173.283 85.5779L173.708 87.9906L176.121 87.5652L175.696 85.1524L173.283 85.5779ZM188.471 72.9487L190.883 72.5232L191.309 74.936L188.896 75.3614L188.471 72.9487ZM182.934 83.8761L185.347 83.4507L185.772 85.8634L183.359 86.2889L182.934 83.8761ZM74.7844 105.434L77.1971 105.008L78.048 109.834L80.4608 109.408L80.0354 106.995L82.4481 106.57L82.8736 108.983L87.6991 108.132L88.55 112.958L86.1372 113.383L86.9881 118.209L84.5753 118.634L82.8736 108.983L80.4608 109.408L80.8862 111.821L78.4735 112.246L78.048 109.834L75.6352 110.259L74.7844 105.434ZM120.627 97.3503L123.04 96.9248L123.891 101.75L121.478 102.176L120.627 97.3503ZM39.4436 116.641L41.8563 116.215L42.2818 118.628L39.869 119.054L39.4436 116.641ZM68.8223 113.948L71.2351 113.523L71.6606 115.936L69.2478 116.361L68.8223 113.948ZM172.572 95.6544L174.985 95.229L175.41 97.6417L172.997 98.0672L172.572 95.6544ZM64.8477 119.625L67.2604 119.199L67.6859 121.612L65.2731 122.037L65.6985 124.45L68.1113 124.025L68.5368 126.438L66.124 126.863L66.5494 129.276L64.1366 129.701L63.7112 127.288L66.124 126.863L65.6985 124.45L63.2858 124.876L62.8603 122.463L65.2731 122.037L64.8477 119.625ZM33.907 127.568L36.3198 127.143L37.1706 131.968L34.7578 132.394L33.907 127.568ZM58.0348 123.314L60.4475 122.888L61.2984 127.714L58.8856 128.139L59.3111 130.552L56.8983 130.978L57.3237 133.39L54.911 133.816L54.4855 131.403L56.8983 130.978L56.4729 128.565L58.8856 128.139L58.0348 123.314ZM195.563 99.0638L197.976 98.6384L198.401 101.051L195.989 101.477L195.563 99.0638ZM51.2219 127.003L53.6346 126.577L54.0601 128.99L51.6473 129.416L51.2219 127.003ZM41.9962 131.117L44.409 130.692L45.6853 137.93L43.2725 138.356L41.9962 131.117ZM70.9495 126.012L73.3623 125.587L73.7878 127.999L71.375 128.425L70.9495 126.012ZM189.176 105.166L191.588 104.74L192.014 107.153L189.601 107.578L189.176 105.166ZM35.1833 134.806L37.5961 134.381L38.0215 136.794L35.6087 137.219L35.1833 134.806ZM59.7365 132.965L64.5621 132.114L64.9875 134.527L67.4003 134.101L66.9749 131.689L69.3876 131.263L69.8131 133.676L67.4003 134.101L67.8257 136.514L72.6513 135.663L73.0767 138.076L70.6639 138.501L71.0894 140.914L73.5022 140.489L73.9276 142.902L71.5148 143.327L71.0894 140.914L68.6766 141.34L67.8257 136.514L65.4129 136.94L64.9875 134.527L60.162 135.378L60.5874 137.79L58.1746 138.216L57.7492 135.803L60.162 135.378L59.7365 132.965ZM122.469 121.903L124.882 121.478L125.307 123.891L122.894 124.316L122.469 121.903ZM134.533 119.776L136.945 119.351L137.371 121.764L134.958 122.189L134.533 119.776ZM192.439 109.566L194.852 109.14L195.278 111.553L192.865 111.979L192.439 109.566ZM36.0342 139.632L38.4469 139.207L38.8724 141.619L36.4596 142.045L36.885 144.458L34.4723 144.883L34.0468 142.47L36.4596 142.045L36.0342 139.632ZM108.418 126.869L110.83 126.443L111.256 128.856L108.843 129.282L108.418 126.869ZM202.516 110.277L204.929 109.851L205.354 112.264L202.941 112.69L202.516 110.277ZM188.465 115.242L193.29 114.391L193.716 116.804L191.303 117.23L191.728 119.642L189.316 120.068L189.741 122.481L187.328 122.906L187.754 125.319L185.341 125.744L184.915 123.331L182.503 123.757L182.928 126.17L178.103 127.021L177.677 124.608L175.264 125.033L174.839 122.62L179.664 121.77L180.09 124.182L182.503 123.757L182.077 121.344L184.49 120.919L184.915 123.331L187.328 122.906L186.477 118.08L188.89 117.655L188.465 115.242ZM63.4256 139.778L65.8384 139.352L66.2638 141.765L63.851 142.191L63.4256 139.778ZM77.9023 137.225L80.3151 136.8L80.7405 139.212L85.5661 138.362L86.4169 143.187L84.0042 143.613L84.855 148.438L87.2678 148.013L87.6932 150.426L85.2805 150.851L84.855 148.438L82.4423 148.864L81.1659 141.625L78.7532 142.051L77.9023 137.225ZM111.681 131.269L114.094 130.844L114.519 133.256L116.932 132.831L117.358 135.244L112.532 136.095L111.681 131.269ZM30.0721 148.147L32.4849 147.721L33.3358 152.547L30.923 152.972L30.0721 148.147ZM46.9616 145.169L49.3744 144.743L49.7998 147.156L47.387 147.581L46.9616 145.169ZM56.6127 143.467L61.4383 142.616L61.8637 145.029L59.4509 145.454L59.8764 147.867L57.4636 148.292L56.6127 143.467ZM42.9869 150.845L45.3997 150.42L45.8251 152.832L43.4123 153.258L42.9869 150.845ZM62.2891 147.442L64.7019 147.016L65.1274 149.429L67.5401 149.003L67.9656 151.416L70.3784 150.991L70.8038 153.404L73.2166 152.978L74.0675 157.804L76.4802 157.378L76.0548 154.965L78.4676 154.54L78.0421 152.127L80.4549 151.702L81.3058 156.527L78.893 156.953L79.3184 159.366L72.0801 160.642L71.6547 158.229L69.2419 158.655L68.8165 156.242L71.2292 155.816L70.8038 153.404L68.391 153.829L67.9656 151.416L65.5528 151.842L65.1274 149.429L62.7146 149.854L62.2891 147.442ZM28.9357 155.81L31.3485 155.385L31.7739 157.798L29.3611 158.223L28.9357 155.81ZM178.953 131.846L183.779 130.995L184.204 133.408L179.379 134.259L178.953 131.846ZM182.217 136.246L184.63 135.821L185.055 138.234L182.643 138.659L182.217 136.246ZM62.0036 159.931L64.4163 159.505L65.2672 164.331L62.8544 164.756L63.7053 169.582L61.2925 170.007L60.4417 165.182L62.8544 164.756L62.0036 159.931ZM115.085 150.571L117.497 150.146L117.923 152.559L115.51 152.984L115.085 150.571ZM93.7951 156.813L96.2079 156.388L96.6333 158.8L94.2206 159.226L94.646 161.639L92.2332 162.064L93.0841 166.89L95.4969 166.464L95.9223 168.877L93.5095 169.302L93.935 171.715L91.5222 172.141L92.3731 176.966L94.7858 176.541L95.2113 178.953L92.7985 179.379L92.3731 176.966L89.9603 177.392L89.5349 174.979L84.7093 175.83L84.2839 173.417L86.6966 172.991L86.2712 170.579L83.8584 171.004L83.0075 166.179L85.4203 165.753L84.5694 160.928L89.395 160.077L89.8204 162.489L92.2332 162.064L91.8078 159.651L94.2206 159.226L93.7951 156.813ZM85.4203 165.753L85.8458 168.166L88.2585 167.74L87.8331 165.328L85.4203 165.753ZM88.2585 167.74L88.684 170.153L91.0968 169.728L90.6713 167.315L88.2585 167.74ZM70.0928 163.48L72.5055 163.055L72.931 165.467L75.3438 165.042L75.7692 167.455L73.3564 167.88L72.931 165.467L70.5182 165.893L70.0928 163.48ZM79.7439 161.778L82.1567 161.353L82.5821 163.766L80.1693 164.191L79.7439 161.778ZM185.906 143.059L188.319 142.634L188.744 145.046L186.332 145.472L185.906 143.059ZM167.455 151.288L174.693 150.012L175.119 152.425L177.531 151.999L177.957 154.412L180.37 153.987L180.795 156.399L183.208 155.974L183.633 158.387L181.22 158.812L181.646 161.225L179.233 161.65L178.382 156.825L175.969 157.25L176.395 159.663L173.982 160.088L173.557 157.676L171.144 158.101L171.569 160.514L166.744 161.365L167.169 163.778L169.582 163.352L170.007 165.765L167.595 166.19L168.02 168.603L163.195 169.454L163.62 171.867L161.207 172.292L161.633 174.705L164.045 174.28L164.471 176.692L162.058 177.118L161.633 174.705L159.22 175.13L157.518 165.479L162.344 164.628L161.493 159.803L163.906 159.377L163.48 156.965L165.893 156.539L165.467 154.126L167.88 153.701L167.455 151.288ZM167.88 153.701L168.306 156.114L170.718 155.688L170.293 153.276L167.88 153.701ZM61.718 172.42L64.1307 171.995L64.5562 174.408L62.1434 174.833L61.718 172.42ZM182.357 151.148L184.77 150.723L185.195 153.136L182.782 153.561L182.357 151.148ZM187.182 150.297L189.595 149.872L190.021 152.285L187.608 152.71L187.182 150.297ZM64.9816 176.82L67.3944 176.395L67.8198 178.808L65.4071 179.233L64.9816 176.82ZM195.272 153.847L197.684 153.421L198.11 155.834L195.697 156.259L195.272 153.847ZM83.1474 181.081L85.5602 180.655L85.9856 183.068L83.5728 183.493L83.1474 181.081ZM138.641 171.296L141.054 170.87L141.48 173.283L146.305 172.432L147.156 177.258L142.33 178.108L141.905 175.696L137.079 176.547L136.654 174.134L139.067 173.708L138.641 171.296ZM153.543 171.156L155.956 170.73L156.382 173.143L153.969 173.568L153.543 171.156ZM168.446 171.016L170.858 170.59L171.284 173.003L168.871 173.429L168.446 171.016ZM120.615 181.937L123.028 181.512L123.454 183.925L121.041 184.35L120.615 181.937ZM147.581 179.67L149.994 179.245L150.42 181.658L148.007 182.083L147.581 179.67ZM144.032 187.76L146.445 187.334L146.87 189.747L144.458 190.172L144.032 187.76ZM160.211 194.858L162.623 194.433L163.049 196.845L160.636 197.271L160.211 194.858Z" fill="#F4D647"/>
<path d="M90.5492 25.5321L92.962 25.1067L93.3874 27.5195L95.8002 27.0941L96.2256 29.5068L91.4001 30.3577L90.5492 25.5321ZM84.1617 31.634L86.5745 31.2086L87 33.6214L84.5872 34.0468L84.1617 31.634ZM139.656 21.8489L142.068 21.4235L142.494 23.8363L140.081 24.2617L139.656 21.8489ZM99.0639 31.4942L101.477 31.0687L102.328 35.8943L104.74 35.4689L105.166 37.8816L102.753 38.3071L102.328 35.8943L99.9147 36.3197L99.0639 31.4942ZM109.14 32.2052L111.553 31.7798L112.404 36.6053L109.991 37.0308L109.14 32.2052ZM145.332 25.8236L147.745 25.3982L149.447 35.0493L151.859 34.6239L152.285 37.0366L154.698 36.6112L155.123 39.024L157.536 38.5985L157.961 41.0113L155.548 41.4368L155.123 39.024L152.71 39.4494L152.285 37.0366L149.872 37.4621L150.297 39.8749L147.885 40.3003L147.459 37.8875L145.047 38.313L144.621 35.9002L147.034 35.4747L146.183 30.6492L143.77 31.0746L143.345 28.6618L145.758 28.2364L145.332 25.8236ZM92.6764 37.596L95.0892 37.1706L95.5146 39.5834L93.1018 40.0088L93.9527 44.8344L96.3655 44.4089L95.94 41.9962L98.3528 41.5707L98.7783 43.9835L101.191 43.5581L101.616 45.9708L99.2037 46.3963L100.055 51.2218L102.467 50.7964L102.893 53.2092L105.306 52.7837L105.731 55.1965L100.905 56.0474L100.48 53.6346L95.6545 54.4855L95.229 52.0727L92.8162 52.4982L92.3908 50.0854L89.978 50.5108L90.4035 52.9236L87.9907 53.349L87.5652 50.9363L89.978 50.5108L89.5526 48.098L91.9654 47.6726L92.3908 50.0854L97.2164 49.2345L96.7909 46.8217L94.3781 47.2472L93.9527 44.8344L91.5399 45.2598L90.689 40.4343L93.1018 40.0088L92.6764 37.596ZM96.3655 44.4089L96.7909 46.8217L99.2037 46.3963L98.7783 43.9835L96.3655 44.4089ZM114.391 33.7671L116.804 33.3417L117.23 35.7544L119.642 35.329L120.068 37.7418L117.655 38.1672L117.23 35.7544L114.817 36.1799L114.391 33.7671ZM134.119 32.7764L136.532 32.3509L137.383 37.1765L139.796 36.7511L140.221 39.1638L142.634 38.7384L143.059 41.1512L140.646 41.5766L141.072 43.9894L138.659 44.4148L138.234 42.0021L140.646 41.5766L140.221 39.1638L137.808 39.5893L137.383 37.1765L134.97 37.6019L134.119 32.7764ZM105.591 40.2944L108.004 39.869L108.429 42.2818L106.017 42.7072L105.591 40.2944ZM122.481 37.3163L127.306 36.4655L127.732 38.8782L125.319 39.3037L125.744 41.7165L123.331 42.1419L122.481 37.3163ZM130.144 38.4528L132.557 38.0274L132.983 40.4401L135.395 40.0147L135.821 42.4275L133.408 42.8529L132.983 40.4401L130.57 40.8656L130.144 38.4528ZM118.506 42.9928L120.919 42.5673L121.344 44.9801L118.931 45.4056L118.506 42.9928ZM65.8502 54.7652L68.263 54.3398L68.6884 56.7525L66.2757 57.178L65.8502 54.7652ZM77.9141 52.638L80.3269 52.2126L80.7523 54.6253L78.3396 55.0508L77.9141 52.638ZM126.17 44.1292L128.582 43.7038L129.008 46.1166L126.595 46.542L127.021 48.9548L124.608 49.3802L124.182 46.9675L126.595 46.542L126.17 44.1292ZM44.9861 63.4197L47.3989 62.9943L47.8243 65.407L45.4115 65.8325L44.9861 63.4197ZM107.718 52.3583L110.131 51.9329L110.557 54.3456L108.144 54.7711L107.718 52.3583ZM160.799 42.9987L163.212 42.5732L164.063 47.3988L166.476 46.9734L167.327 51.7989L169.74 51.3735L170.165 53.7862L165.339 54.6371L164.914 52.2243L162.501 52.6498L160.799 42.9987ZM52.6499 64.5562L57.4754 63.7053L57.9009 66.1181L60.3136 65.6926L60.7391 68.1054L63.1519 67.68L63.5773 70.0927L61.1645 70.5182L60.7391 68.1054L55.9135 68.9563L55.4881 66.5435L53.0753 66.9689L52.6499 64.5562ZM64.7138 62.429L67.1265 62.0035L67.552 64.4163L69.9648 63.9909L70.3902 66.4037L67.9774 66.8291L67.552 64.4163L65.1392 64.8417L64.7138 62.429ZM86.4288 58.6L88.8416 58.1746L89.267 60.5874L86.8542 61.0128L86.4288 58.6ZM156.399 46.2623L158.812 45.8369L159.238 48.2497L156.825 48.6751L156.399 46.2623ZM48.6752 70.2326L51.088 69.8072L51.9388 74.6327L54.3516 74.2073L54.7771 76.6201L57.1898 76.1946L57.6153 78.6074L55.2025 79.0328L54.7771 76.6201L52.3643 77.0455L51.9388 74.6327L49.5261 75.0582L48.6752 70.2326ZM130.71 55.7677L133.122 55.3423L133.548 57.755L135.961 57.3296L136.386 59.7424L133.973 60.1678L133.548 57.755L131.135 58.1805L131.561 60.5933L129.148 61.0187L128.722 58.6059L131.135 58.1805L130.71 55.7677ZM174.14 48.1098L176.552 47.6844L176.978 50.0972L174.565 50.5226L174.14 48.1098ZM186.204 45.9826L188.616 45.5572L189.042 47.97L191.455 47.5445L192.305 52.3701L189.893 52.7955L190.318 55.2083L192.731 54.7829L193.156 57.1956L188.331 58.0465L188.756 60.4593L191.169 60.0339L191.594 62.4466L189.182 62.8721L189.607 65.2849L192.02 64.8594L192.445 67.2722L194.858 66.8468L195.284 69.2595L190.458 70.1104L190.033 67.6976L187.62 68.1231L186.769 63.2975L184.356 63.723L183.931 61.3102L186.343 60.8847L185.918 58.472L188.331 58.0465L187.48 53.221L189.893 52.7955L189.042 47.97L186.629 48.3954L186.204 45.9826ZM56.339 71.3691L58.7517 70.9436L59.1772 73.3564L56.7644 73.7818L56.339 71.3691ZM97.3562 64.1366L99.769 63.7112L100.194 66.124L102.607 65.6985L103.033 68.1113L98.2071 68.9622L97.3562 64.1366ZM138.373 56.9042L140.786 56.4787L141.212 58.8915L143.624 58.4661L143.199 56.0533L150.437 54.777L150.863 57.1898L143.624 58.4661L144.05 60.8788L141.637 61.3043L141.212 58.8915L138.799 59.3169L138.373 56.9042ZM157.676 53.5007L160.088 53.0752L160.514 55.488L158.101 55.9134L157.676 53.5007ZM114.671 63.5713L117.084 63.1459L117.509 65.5587L115.097 65.9841L114.671 63.5713ZM179.816 52.0845L182.229 51.6591L182.654 54.0718L180.242 54.4973L181.092 59.3228L178.68 59.7483L177.829 54.9227L180.242 54.4973L179.816 52.0845ZM62.0154 75.3437L64.4282 74.9183L64.8536 77.3311L62.4408 77.7565L62.0154 75.3437ZM160.939 57.9008L163.352 57.4753L163.778 59.8881L166.19 59.4627L166.616 61.8755L164.203 62.3009L163.778 59.8881L161.365 60.3136L160.939 57.9008ZM170.59 56.199L173.003 55.7736L173.429 58.1864L175.841 57.7609L176.267 60.1737L173.854 60.5991L173.429 58.1864L171.016 58.6118L170.59 56.199ZM67.2664 76.9056L69.6792 76.4802L70.1046 78.893L67.6918 79.3184L67.2664 76.9056ZM129.999 65.8443L132.411 65.4188L132.837 67.8316L137.662 66.9807L138.088 69.3935L133.262 70.2444L133.688 72.6572L131.275 73.0826L129.999 65.8443ZM142.063 63.7171L144.475 63.2916L144.901 65.7044L147.314 65.279L147.739 67.6917L145.326 68.1172L144.901 65.7044L142.488 66.1298L142.063 63.7171ZM43.564 83.5728L45.9768 83.1474L46.4023 85.5601L43.9895 85.9856L43.564 83.5728ZM48.3896 82.7219L50.8024 82.2965L51.2278 84.7093L48.815 85.1347L48.3896 82.7219ZM176.692 62.5865L179.105 62.1611L179.956 66.9866L177.543 67.412L176.692 62.5865ZM39.5894 89.2492L42.0021 88.8238L42.4276 91.2366L40.0148 91.662L39.5894 89.2492ZM51.6533 87.122L54.066 86.6966L54.4915 89.1094L52.0787 89.5348L52.5041 91.9476L50.0914 92.373L50.5168 94.7858L52.9296 94.3604L53.355 96.7732L55.7678 96.3477L56.1932 98.7605L51.3677 99.6114L50.5168 94.7858L48.104 95.2113L47.6786 92.7985L45.2658 93.2239L44.8404 90.8111L47.2531 90.3857L47.6786 92.7985L50.0914 92.373L49.6659 89.9603L52.0787 89.5348L51.6533 87.122ZM93.0959 82.3024L95.5087 81.8769L95.9342 84.2897L98.3469 83.8643L98.7724 86.2771L93.9468 87.1279L93.0959 82.3024ZM160.654 70.3901L163.067 69.9647L163.917 74.7902L166.33 74.3648L166.756 76.7776L164.343 77.203L163.917 74.7902L161.505 75.2157L160.654 70.3901ZM57.3297 91.0967L59.7425 90.6713L60.1679 93.0841L62.5807 92.6586L63.0061 95.0714L60.5933 95.4968L60.1679 93.0841L57.7551 93.5095L57.3297 91.0967ZM69.3936 88.9695L71.8064 88.5441L72.2318 90.9569L69.819 91.3823L70.2445 93.7951L67.8317 94.2205L67.4062 91.8078L69.819 91.3823L69.3936 88.9695ZM31.2146 98.1893L33.6273 97.7639L34.0528 100.177L31.64 100.602L31.2146 98.1893ZM106.011 85.0007L108.423 84.5753L108.849 86.9881L106.436 87.4135L107.287 92.2391L109.7 91.8136L110.125 94.2264L107.712 94.6519L107.287 92.2391L104.874 92.6645L105.3 95.0773L102.887 95.5027L103.738 100.328L101.325 100.754L100.9 98.341L98.4868 98.7664L98.0613 96.3536L100.474 95.9282L100.049 93.5154L102.461 93.09L102.036 90.6772L104.449 90.2517L104.023 87.839L106.436 87.4135L106.011 85.0007ZM168.743 73.9394L171.156 73.5139L171.581 75.9267L173.994 75.5013L174.419 77.914L176.832 77.4886L177.258 79.9014L174.845 80.3268L175.27 82.7396L172.857 83.165L173.283 85.5778L170.87 86.0033L171.296 88.416L168.883 88.8415L168.457 86.4287L170.87 86.0033L170.445 83.5905L172.857 83.165L172.432 80.7523L174.845 80.3268L174.419 77.914L169.594 78.7649L168.743 73.9394ZM36.4656 99.7512L38.8783 99.3258L39.3038 101.739L36.891 102.164L37.3164 104.577L34.9037 105.002L34.4782 102.589L36.891 102.164L36.4656 99.7512ZM43.7039 98.4749L46.1167 98.0495L46.5421 100.462L44.1293 100.888L45.4056 108.126L42.9929 108.551L42.5674 106.139L40.1546 106.564L39.7292 104.151L42.142 103.726L41.7166 101.313L44.1293 100.888L43.7039 98.4749ZM193.296 72.0978L198.122 71.2469L198.547 73.6597L193.722 74.5105L193.296 72.0978ZM24.8271 104.291L27.2399 103.866L28.5162 111.104L30.929 110.679L31.7798 115.504L29.3671 115.93L28.9416 113.517L26.5288 113.942L24.8271 104.291ZM49.3803 102.45L51.7931 102.024L52.644 106.85L55.0568 106.424L55.4822 108.837L53.0694 109.262L53.4949 111.675L51.0821 112.101L50.6566 109.688L53.0694 109.262L52.644 106.85L50.2312 107.275L49.3803 102.45ZM56.6187 101.173L59.0314 100.748L59.4569 103.161L57.0441 103.586L56.6187 101.173ZM179.67 79.4759L182.083 79.0505L182.509 81.4633L180.096 81.8887L179.67 79.4759ZM189.322 77.7742L191.734 77.3488L192.16 79.7615L194.573 79.3361L194.147 76.9233L196.56 76.4979L196.985 78.9107L194.573 79.3361L194.998 81.7489L192.585 82.1743L193.436 86.9999L191.023 87.4253L190.172 82.5997L187.76 83.0252L187.334 80.6124L189.747 80.187L189.322 77.7742ZM189.747 80.187L190.172 82.5997L192.585 82.1743L192.16 79.7615L189.747 80.187ZM35.7545 109.828L38.1673 109.402L38.5927 111.815L36.18 112.241L35.7545 109.828ZM161.219 87.705L163.632 87.2796L164.057 89.6923L161.644 90.1178L161.219 87.705ZM156.819 90.9687L159.232 90.5432L159.657 92.956L162.07 92.5306L162.495 94.9433L160.083 95.3688L159.657 92.956L157.244 93.3814L157.67 95.7942L155.257 96.2197L154.832 93.8069L157.244 93.3814L156.819 90.9687ZM185.772 85.8634L188.185 85.438L189.036 90.2635L191.449 89.8381L191.874 92.2509L189.461 92.6763L189.887 95.0891L192.3 94.6636L192.725 97.0764L195.138 96.651L195.989 101.477L198.401 101.051L198.827 103.464L201.24 103.038L202.516 110.277L200.103 110.702L198.827 103.464L196.414 103.889L195.989 101.477L193.576 101.902L193.15 99.4892L190.738 99.9146L189.887 95.0891L187.474 95.5145L185.772 85.8634ZM34.1926 115.079L36.6054 114.653L37.0308 117.066L34.6181 117.492L34.1926 115.079ZM77.6226 107.421L80.0354 106.995L80.4609 109.408L82.8736 108.983L83.2991 111.396L80.8863 111.821L81.3117 114.234L78.899 114.659L78.4735 112.246L80.8863 111.821L80.4609 109.408L78.0481 109.834L77.6226 107.421ZM178.959 89.5525L181.372 89.1271L181.798 91.5398L179.385 91.9653L178.959 89.5525ZM51.5075 114.513L53.9203 114.088L54.3457 116.501L56.7585 116.075L57.184 118.488L59.5967 118.063L60.0222 120.476L57.6094 120.901L57.184 118.488L54.7712 118.914L55.1966 121.326L50.3711 122.177L49.9456 119.764L52.3584 119.339L51.5075 114.513ZM61.1586 112.812L63.5714 112.386L63.9968 114.799L61.5841 115.225L61.1586 112.812ZM174.559 92.8162L176.972 92.3907L177.397 94.8035L179.81 94.3781L180.236 96.7908L182.648 96.3654L183.074 98.7782L185.487 98.3527L185.912 100.766L188.325 100.34L188.75 102.753L186.338 103.178L185.912 100.766L183.499 101.191L183.074 98.7782L180.661 99.2036L180.236 96.7908L177.823 97.2163L177.397 94.8035L174.985 95.2289L174.559 92.8162ZM155.682 98.6324L158.095 98.207L158.521 100.62L156.108 101.045L155.682 98.6324ZM160.508 97.7816L162.921 97.3561L163.346 99.7689L165.759 99.3435L166.184 101.756L163.772 102.182L163.346 99.7689L160.933 100.194L160.508 97.7816ZM60.4476 122.888L62.8604 122.463L63.2858 124.876L65.6986 124.45L66.124 126.863L68.5368 126.438L68.9623 128.85L71.375 128.425L71.8005 130.838L74.2133 130.412L73.7878 127.999L76.2006 127.574L76.626 129.987L74.2133 130.412L74.6387 132.825L79.4642 131.974L79.0388 129.561L81.4516 129.136L81.0262 126.723L85.8517 125.872L86.2771 128.285L88.6899 127.86L88.2645 125.447L90.6773 125.021L91.5281 129.847L89.1154 130.272L89.9662 135.098L87.5535 135.523L87.9789 137.936L80.7406 139.212L80.3151 136.8L77.9023 137.225L78.7532 142.051L81.166 141.625L82.4423 148.864L80.0295 149.289L80.455 151.702L78.0422 152.127L78.4676 154.54L76.0549 154.965L76.4803 157.378L74.0675 157.804L73.2166 152.978L70.8039 153.404L70.3784 150.991L67.9656 151.416L67.5402 149.003L65.1274 149.429L64.702 147.016L62.2892 147.442L61.0129 140.203L63.4257 139.778L63.8511 142.191L71.0894 140.914L70.664 138.501L73.0768 138.076L72.6513 135.663L75.0641 135.238L74.6387 132.825L72.2259 133.25L71.8005 130.838L69.3877 131.263L68.9623 128.85L66.5495 129.276L66.124 126.863L61.2985 127.714L60.4476 122.888ZM71.0894 140.914L71.5149 143.327L73.9277 142.902L73.5022 140.489L71.0894 140.914ZM67.6859 121.612L70.0987 121.187L70.5242 123.599L68.1114 124.025L67.6859 121.612ZM39.158 129.13L41.5708 128.705L41.9962 131.117L39.5835 131.543L39.158 129.13ZM56.0475 126.152L58.4603 125.727L58.8857 128.139L56.4729 128.565L56.8984 130.978L52.0728 131.828L51.6474 129.416L56.4729 128.565L56.0475 126.152ZM164.623 107.007L167.035 106.582L167.461 108.995L172.286 108.144L172.712 110.556L175.125 110.131L175.55 112.544L177.963 112.118L178.388 114.531L175.975 114.957L175.55 112.544L170.724 113.395L170.299 110.982L167.886 111.407L167.461 108.995L165.048 109.42L164.623 107.007ZM34.7579 132.394L37.1707 131.968L37.5961 134.381L35.1833 134.806L34.7579 132.394ZM59.3111 130.552L61.7239 130.127L62.1494 132.539L59.7366 132.965L60.162 135.378L57.7492 135.803L57.3238 133.39L59.7366 132.965L59.3111 130.552ZM109.98 121.618L112.392 121.192L112.818 123.605L115.23 123.18L114.805 120.767L117.218 120.342L117.643 122.754L122.469 121.903L122.894 124.316L130.133 123.04L129.282 118.214L131.695 117.789L132.12 120.202L134.533 119.776L135.809 127.015L140.635 126.164L141.06 128.577L145.886 127.726L146.736 132.551L149.149 132.126L149.575 134.539L151.987 134.113L152.413 136.526L154.826 136.1L155.251 138.513L160.077 137.662L160.928 142.488L165.753 141.637L166.179 144.05L168.591 143.624L169.868 150.863L167.455 151.288L167.88 153.701L170.293 153.275L170.719 155.688L168.306 156.114L167.88 153.701L165.468 154.126L165.893 156.539L163.48 156.965L163.906 159.377L161.493 159.803L162.344 164.628L157.518 165.479L158.369 170.305L151.131 171.581L151.556 173.994L146.731 174.845L146.305 172.432L143.892 172.857L143.041 168.032L138.216 168.883L138.641 171.296L136.229 171.721L136.654 174.134L134.241 174.559L134.667 176.972L139.492 176.121L139.918 178.534L137.505 178.959L137.93 181.372L135.518 181.797L134.667 176.972L132.254 177.397L131.828 174.985L127.003 175.835L126.577 173.423L124.165 173.848L123.739 171.435L118.914 172.286L117.212 162.635L114.799 163.061L115.225 165.473L112.812 165.899L114.088 173.137L106.85 174.413L106.424 172.001L101.599 172.852L101.173 170.439L93.935 171.715L94.3605 174.128L91.9477 174.553L91.5223 172.14L93.935 171.715L93.5096 169.302L95.9224 168.877L95.4969 166.464L93.0842 166.889L92.2333 162.064L94.6461 161.638L94.2206 159.226L101.459 157.949L101.884 160.362L104.297 159.937L103.021 152.698L100.608 153.124L99.3318 145.886L101.745 145.46L101.319 143.047L103.732 142.622L103.306 140.209L105.719 139.784L104.868 134.958L107.281 134.533L106.43 129.707L111.256 128.856L109.98 121.618ZM111.681 131.269L112.532 136.095L117.358 135.244L116.932 132.831L114.519 133.256L114.094 130.844L111.681 131.269ZM130.983 127.865L131.409 130.278L128.996 130.704L129.847 135.529L127.434 135.955L128.285 140.78L125.872 141.206L126.298 143.618L128.711 143.193L129.987 150.431L132.4 150.006L133.251 154.831L135.663 154.406L136.089 156.819L138.502 156.393L138.927 158.806L146.165 157.53L145.74 155.117L150.565 154.266L150.14 151.853L147.727 152.279L146.451 145.041L144.038 145.466L143.613 143.053L146.025 142.628L145.6 140.215L143.187 140.64L142.762 138.228L145.175 137.802L144.324 132.977L141.911 133.402L141.06 128.577L136.234 129.427L135.809 127.015L130.983 127.865ZM114.659 148.158L115.51 152.984L120.336 152.133L119.91 149.72L117.498 150.146L117.072 147.733L114.659 148.158ZM192.014 107.153L194.427 106.728L194.852 109.14L192.439 109.566L192.014 107.153ZM35.6088 137.219L38.0216 136.794L38.447 139.207L40.8598 138.781L41.2852 141.194L38.8724 141.619L38.447 139.207L36.0342 139.632L35.6088 137.219ZM52.4982 134.241L54.911 133.816L55.3365 136.229L52.9237 136.654L52.4982 134.241ZM64.5621 132.114L66.9749 131.689L67.4004 134.101L64.9876 134.527L64.5621 132.114ZM165.899 114.246L168.312 113.82L169.163 118.646L166.75 119.071L167.175 121.484L164.762 121.909L164.337 119.497L166.75 119.071L165.899 114.246ZM185.201 110.842L187.614 110.417L188.039 112.829L190.452 112.404L190.878 114.817L188.465 115.242L188.89 117.655L186.477 118.08L186.052 115.668L183.639 116.093L183.214 113.68L185.627 113.255L185.201 110.842ZM195.278 111.553L197.69 111.128L198.116 113.54L195.703 113.966L195.278 111.553ZM43.698 140.768L46.1108 140.343L46.5362 142.756L44.1234 143.181L44.9743 148.007L47.3871 147.581L47.8125 149.994L50.2253 149.569L49.7999 147.156L52.2127 146.73L52.6381 149.143L55.0509 148.718L55.9017 153.543L58.3145 153.118L58.74 155.531L56.3272 155.956L55.9017 153.543L53.489 153.969L53.9144 156.382L51.5016 156.807L51.0762 154.394L48.6634 154.82L47.8125 149.994L45.3998 150.42L44.9743 148.007L42.5615 148.432L43.4124 153.258L45.8252 152.832L46.2506 155.245L43.8379 155.671L43.4124 153.258L40.9996 153.683L40.1488 148.858L42.5615 148.432L41.7107 143.607L44.1234 143.181L43.698 140.768ZM50.2253 149.569L51.0762 154.394L53.489 153.969L52.6381 149.143L50.2253 149.569ZM200.529 113.115L202.941 112.69L203.367 115.102L200.954 115.528L201.805 120.353L199.392 120.779L199.818 123.192L197.405 123.617L197.83 126.03L195.417 126.455L196.268 131.281L193.856 131.706L194.706 136.532L197.119 136.106L197.545 138.519L195.132 138.945L195.983 143.77L198.396 143.345L198.821 145.757L196.408 146.183L197.685 153.421L192.859 154.272L192.434 151.859L194.846 151.434L192.294 136.957L189.881 137.383L190.306 139.795L187.894 140.221L187.468 137.808L189.881 137.383L189.455 134.97L191.868 134.544L190.592 127.306L193.005 126.881L192.579 124.468L197.405 123.617L196.979 121.204L194.567 121.63L194.141 119.217L191.728 119.642L191.303 117.23L193.716 116.804L194.141 119.217L196.554 118.791L196.979 121.204L199.392 120.779L198.541 115.953L200.954 115.528L200.529 113.115ZM34.4723 144.883L36.8851 144.458L37.3105 146.87L34.8978 147.296L35.3232 149.709L32.9104 150.134L32.485 147.721L34.8978 147.296L34.4723 144.883ZM54.2 143.892L56.6128 143.467L57.0382 145.88L54.6254 146.305L54.2 143.892ZM179.665 121.77L182.077 121.344L182.503 123.757L180.09 124.182L179.665 121.77ZM98.0555 138.647L100.468 138.222L100.894 140.635L98.4809 141.06L98.0555 138.647ZM175.69 127.446L180.515 126.595L180.941 129.008L176.115 129.859L175.69 127.446ZM31.3485 155.385L33.7613 154.96L34.6122 159.785L37.025 159.36L37.8758 164.185L35.463 164.611L35.0376 162.198L32.6248 162.623L31.3485 155.385ZM137.936 139.079L140.349 138.653L140.774 141.066L138.362 141.491L137.936 139.079ZM39.4377 158.934L49.0888 157.232L49.5143 159.645L44.6887 160.496L45.1142 162.909L42.7014 163.334L42.2759 160.922L39.8632 161.347L39.4377 158.934ZM184.204 133.408L186.617 132.983L187.043 135.395L184.63 135.821L184.204 133.408ZM69.6674 161.067L72.0802 160.642L72.5056 163.055L70.0928 163.48L70.5183 165.893L68.1055 166.318L67.6801 163.906L70.0928 163.48L69.6674 161.067ZM88.9696 157.664L91.3824 157.238L91.8078 159.651L89.3951 160.077L88.9696 157.664ZM188.744 145.046L191.157 144.621L191.583 147.034L189.17 147.459L189.595 149.872L187.183 150.297L186.757 147.885L189.17 147.459L188.744 145.046ZM61.2926 170.007L63.7054 169.582L64.1308 171.995L66.5436 171.569L67.3945 176.395L72.22 175.544L72.6455 177.957L79.8838 176.68L80.3092 179.093L85.1348 178.242L85.5602 180.655L87.973 180.23L88.3984 182.642L90.8112 182.217L92.513 191.868L94.9258 191.443L95.3512 193.856L97.764 193.43L98.1894 195.843L100.602 195.417L101.028 197.83L96.2021 198.681L95.3512 193.856L92.9384 194.281L92.513 191.868L90.1002 192.294L88.3984 182.642L85.9857 183.068L85.5602 180.655L80.7347 181.506L80.3092 179.093L70.6581 180.795L70.2327 178.382L67.8199 178.808L67.3945 176.395L64.9817 176.82L64.1308 171.995L61.718 172.42L61.2926 170.007ZM70.9437 168.306L73.3565 167.88L73.7819 170.293L76.1947 169.868L75.7693 167.455L78.182 167.029L78.6075 169.442L81.0203 169.017L81.4457 171.429L83.8585 171.004L84.2839 173.417L81.8711 173.842L81.4457 171.429L79.0329 171.855L78.6075 169.442L76.1947 169.868L76.6201 172.28L74.2074 172.706L73.7819 170.293L71.3691 170.718L70.9437 168.306ZM85.4204 165.753L87.8332 165.328L88.2586 167.74L90.6714 167.315L91.0968 169.728L88.684 170.153L88.2586 167.74L85.8458 168.166L85.4204 165.753ZM177.531 151.999L179.944 151.574L180.37 153.987L182.782 153.561L183.208 155.974L180.795 156.399L180.37 153.987L177.957 154.412L177.531 151.999ZM185.195 153.136L187.608 152.71L188.033 155.123L190.446 154.698L190.872 157.11L193.284 156.685L193.71 159.098L191.297 159.523L190.872 157.11L188.459 157.536L188.033 155.123L185.621 155.548L185.195 153.136ZM166.744 161.365L169.157 160.939L169.582 163.352L167.169 163.777L166.744 161.365ZM183.633 158.387L186.046 157.961L186.472 160.374L188.884 159.949L189.31 162.361L186.897 162.787L186.472 160.374L184.059 160.799L183.633 158.387ZM165.607 169.028L168.02 168.603L168.446 171.016L166.033 171.441L165.607 169.028ZM94.0749 186.617L96.4877 186.192L96.9131 188.605L99.3259 188.179L99.7513 190.592L106.99 189.316L107.415 191.728L109.828 191.303L109.402 188.89L111.815 188.465L112.241 190.877L114.653 190.452L115.079 192.865L117.492 192.439L117.917 194.852L115.504 195.278L115.93 197.69L120.755 196.839L121.181 199.252L128.419 197.976L127.994 195.563L132.819 194.712L132.394 192.299L134.807 191.874L134.381 189.461L136.794 189.036L137.219 191.449L139.632 191.023L138.356 183.785L140.769 183.359L141.194 185.772L143.607 185.347L144.032 187.76L141.619 188.185L142.045 190.598L139.632 191.023L140.058 193.436L137.645 193.861L137.219 191.449L134.807 191.874L135.232 194.287L132.819 194.712L133.245 197.125L135.657 196.7L136.083 199.112L133.67 199.538L133.245 197.125L128.419 197.976L128.845 200.389L121.606 201.665L121.181 199.252L116.355 200.103L115.93 197.69L111.104 198.541L110.679 196.128L115.504 195.278L115.079 192.865L112.666 193.29L112.241 190.877L109.828 191.303L110.253 193.716L107.841 194.141L108.691 198.967L103.866 199.818L103.015 194.992L107.841 194.141L107.415 191.728L100.177 193.005L99.7513 190.592L97.3385 191.017L96.9131 188.605L94.5003 189.03L94.0749 186.617ZM144.743 177.683L147.156 177.258L147.581 179.67L145.169 180.096L144.743 177.683ZM166.458 173.854L168.871 173.429L169.722 178.254L167.309 178.68L167.735 181.092L170.147 180.667L171.849 190.318L169.436 190.743L169.862 193.156L167.449 193.582L166.598 188.756L169.011 188.331L167.735 181.092L165.322 181.518L165.747 183.931L163.334 184.356L162.909 181.943L165.322 181.518L164.896 179.105L167.309 178.68L166.458 173.854ZM130.692 182.648L133.105 182.223L133.956 187.048L131.543 187.474L131.968 189.887L129.556 190.312L129.13 187.899L131.543 187.474L130.692 182.648ZM145.594 182.509L148.007 182.083L148.432 184.496L150.845 184.07L151.271 186.483L153.683 186.058L154.109 188.471L151.696 188.896L152.121 191.309L154.534 190.883L154.96 193.296L159.785 192.445L160.211 194.858L155.385 195.709L154.96 193.296L152.547 193.722L152.121 191.309L149.709 191.734L149.283 189.321L146.87 189.747L146.445 187.334L148.858 186.909L148.432 184.496L146.02 184.921L145.594 182.509ZM148.858 186.909L149.283 189.321L151.696 188.896L151.271 186.483L148.858 186.909ZM119.904 192.014L122.317 191.588L122.743 194.001L125.155 193.576L124.73 191.163L127.143 190.738L127.568 193.15L125.155 193.576L125.581 195.989L123.168 196.414L122.743 194.001L120.33 194.427L119.904 192.014ZM158.509 185.207L160.922 184.781L161.347 187.194L163.76 186.769L164.185 189.182L161.773 189.607L161.347 187.194L158.934 187.62L159.36 190.032L156.947 190.458L156.522 188.045L158.934 187.62L158.509 185.207ZM162.198 192.02L164.611 191.594L165.462 196.42L163.049 196.845L162.198 192.02Z" fill="#F56146"/>
<path d="M88.2763 40.8597L90.689 40.4343L91.1145 42.8471L88.7017 43.2725L88.2763 40.8597ZM93.1018 40.0089L97.9274 39.158L98.3528 41.5708L103.178 40.7199L103.604 43.1327L110.842 41.8564L111.268 44.2691L101.616 45.9709L101.191 43.5581L98.7782 43.9835L98.3528 41.5708L93.5273 42.4216L93.1018 40.0089ZM112.829 39.0181L115.242 38.5927L115.668 41.0055L118.08 40.58L118.931 45.4056L126.17 44.1293L126.595 46.5421L129.008 46.1166L128.582 43.7038L130.995 43.2784L130.57 40.8656L132.983 40.4402L132.557 38.0274L134.97 37.602L135.395 40.0148L140.221 39.1639L139.795 36.7511L142.208 36.3257L141.783 33.9129L144.196 33.4874L144.621 35.9002L142.208 36.3257L142.634 38.7384L140.221 39.1639L140.646 41.5767L143.059 41.1512L143.485 43.564L150.723 42.2877L151.148 44.7005L155.974 43.8496L156.825 48.6751L159.238 48.2497L160.088 53.0753L157.676 53.5007L158.101 55.9135L160.514 55.488L160.939 57.9008L158.527 58.3263L158.952 60.739L163.778 59.8882L163.352 57.4754L165.765 57.0499L166.19 59.4627L168.603 59.0373L169.029 61.4501L171.441 61.0246L171.016 58.6118L173.429 58.1864L173.003 55.7736L175.416 55.3482L175.841 57.761L178.254 57.3355L178.68 59.7483L181.092 59.3229L181.518 61.7357L183.931 61.3102L184.356 63.723L181.943 64.1484L181.518 61.7357L176.692 62.5865L177.118 64.9993L172.292 65.8502L171.867 63.4374L167.041 64.2883L166.19 59.4627L163.778 59.8882L164.628 64.7137L157.39 65.99L156.965 63.5773L154.552 64.0027L154.126 61.5899L151.714 62.0154L151.288 59.6026L153.701 59.1771L153.276 56.7644L155.688 56.3389L154.412 49.1006L151.999 49.526L151.148 44.7005L148.736 45.1259L149.161 47.5387L146.748 47.9641L147.174 50.3769L142.348 51.2278L141.923 48.815L134.684 50.0913L134.259 47.6785L127.021 48.9548L127.446 51.3676L125.033 51.7931L124.608 49.3803L122.195 49.8057L121.77 47.3929L119.357 47.8184L118.931 45.4056L116.519 45.831L116.093 43.4183L113.68 43.8437L112.829 39.0181ZM132.983 40.4402L133.408 42.853L135.821 42.4275L135.395 40.0148L132.983 40.4402ZM138.234 42.0021L138.659 44.4149L141.072 43.9894L140.646 41.5767L138.234 42.0021ZM124.182 46.9675L124.608 49.3803L127.021 48.9548L126.595 46.5421L124.182 46.9675ZM141.497 46.4022L141.923 48.815L144.335 48.3896L143.91 45.9768L141.497 46.4022ZM153.701 59.1771L154.126 61.5899L156.539 61.1645L156.114 58.7517L153.701 59.1771ZM173.429 58.1864L174.28 63.012L176.692 62.5865L175.841 57.761L173.429 58.1864ZM53.0753 66.969L55.4881 66.5435L55.9135 68.9563L58.3263 68.5309L58.7517 70.9437L61.1645 70.5182L62.0154 75.3438L59.6026 75.7692L58.7517 70.9437L56.339 71.3691L55.9135 68.9563L53.5007 69.3818L53.0753 66.969ZM107.007 62.4349L114.246 61.1586L115.947 70.8097L120.773 69.9588L121.198 72.3716L118.786 72.797L119.211 75.2098L116.798 75.6353L116.373 73.2225L113.96 73.6479L114.385 76.0607L111.973 76.4861L111.547 74.0734L106.722 74.9242L106.296 72.5115L103.884 72.9369L104.309 75.3497L99.4834 76.2005L99.9088 78.6133L97.496 79.0388L97.9215 81.4515L100.334 81.0261L101.185 85.8517L98.7724 86.2771L97.9215 81.4515L90.6831 82.7279L91.534 87.5534L93.9468 87.128L94.3722 89.5408L89.5467 90.3916L89.9721 92.8044L87.5593 93.2298L87.9848 95.6426L85.572 96.0681L85.1466 93.6553L87.5593 93.2298L87.1339 90.8171L84.7211 91.2425L84.2957 88.8297L86.7085 88.4043L85.4321 81.166L87.8449 80.7405L87.4195 78.3277L85.0067 78.7532L84.5813 76.3404L86.9941 75.915L86.5686 73.5022L88.9814 73.0767L89.8323 77.9023L92.245 77.4769L91.8196 75.0641L96.6452 74.2132L97.0706 76.626L99.4834 76.2005L98.6325 71.375L101.045 70.9496L100.62 68.5368L103.033 68.1113L102.607 65.6986L107.433 64.8477L107.007 62.4349ZM86.7085 88.4043L87.1339 90.8171L89.5467 90.3916L89.1212 87.9789L86.7085 88.4043ZM135.961 57.3296L138.373 56.9042L139.224 61.7298L144.05 60.8789L143.624 58.4661L148.45 57.6152L148.875 60.028L146.463 60.4534L147.314 65.279L144.901 65.7044L144.475 63.2917L142.063 63.7171L142.913 68.5427L145.326 68.1172L145.752 70.53L148.164 70.1046L148.59 72.5173L146.177 72.9428L145.752 70.53L140.926 71.3809L143.053 83.4448L145.466 83.0193L145.041 80.6066L149.866 79.7557L150.292 82.1685L152.704 81.743L152.279 79.3302L157.104 78.4794L156.679 76.0666L163.917 74.7903L164.343 77.2031L169.168 76.3522L169.594 78.765L172.007 78.3395L172.857 83.1651L168.032 84.016L168.457 86.4287L166.045 86.8542L166.47 89.2669L164.057 89.6924L163.632 87.2796L158.806 88.1305L159.232 90.5433L161.644 90.1178L162.07 92.5306L159.657 92.956L159.232 90.5433L156.819 90.9687L156.393 88.5559L158.806 88.1305L158.381 85.7177L153.555 86.5686L153.13 84.1558L148.304 85.0067L147.879 82.5939L145.466 83.0193L145.891 85.4321L143.479 85.8576L143.053 83.4448L138.228 84.2956L137.377 79.4701L134.964 79.8955L134.113 75.07L131.7 75.4954L131.275 73.0826L128.862 73.5081L128.437 71.0953L130.85 70.6699L131.275 73.0826L133.688 72.6572L134.113 75.07L138.939 74.2191L138.513 71.8063L140.926 71.3809L140.501 68.9681L138.088 69.3935L137.237 64.568L134.824 64.9934L134.399 62.5806L131.986 63.0061L131.561 60.5933L136.386 59.7424L135.961 57.3296ZM157.53 80.8921L157.955 83.3049L162.781 82.454L163.206 84.8668L165.619 84.4414L164.768 79.6158L157.53 80.8921ZM180.242 54.4973L182.654 54.0719L183.08 56.4847L180.667 56.9101L180.242 54.4973ZM149.726 64.8536L152.139 64.4281L152.565 66.8409L150.152 67.2663L149.726 64.8536ZM123.611 71.9462L126.024 71.5207L126.449 73.9335L124.037 74.3589L123.611 71.9462ZM73.3683 83.2931L75.781 82.8677L76.2065 85.2805L73.7937 85.7059L74.2191 88.1187L76.6319 87.6933L77.0573 90.106L74.6446 90.5315L75.07 92.9443L72.6572 93.3697L73.0827 95.7825L70.6699 96.2079L71.0953 98.6207L68.6825 99.0461L69.108 101.459L66.6952 101.884L67.9715 109.123L70.3843 108.697L71.2352 113.523L68.8224 113.948L69.2478 116.361L66.8351 116.786L67.2605 119.199L69.6733 118.774L70.0987 121.187L67.6859 121.612L67.2605 119.199L64.8477 119.625L63.146 109.974L58.3204 110.824L57.895 108.412L55.4822 108.837L54.2059 101.599L56.6187 101.173L55.7678 96.3478L53.355 96.7732L52.9296 94.3604L55.3423 93.935L55.7678 96.3478L58.1806 95.9223L57.7551 93.5095L60.1679 93.0841L60.5933 95.4969L65.4189 94.646L64.9935 92.2332L67.4062 91.8078L67.8317 94.2206L70.2444 93.7951L69.819 91.3824L74.6446 90.5315L74.2191 88.1187L71.8064 88.5441L71.3809 86.1314L73.7937 85.7059L73.3683 83.2931ZM56.6187 101.173L57.0441 103.586L59.4569 103.161L59.0314 100.748L56.6187 101.173ZM175.13 67.8375L182.369 66.5612L182.794 68.974L187.62 68.1231L188.896 75.3615L191.309 74.936L191.734 77.3488L189.321 77.7742L189.747 80.187L187.334 80.6124L187.76 83.0252L182.934 83.8761L184.21 91.1144L181.798 91.5399L181.372 89.1271L178.959 89.5525L179.81 94.3781L182.223 93.9527L182.648 96.3654L185.061 95.94L185.487 98.3528L187.899 97.9273L188.325 100.34L185.912 100.766L186.338 103.178L191.163 102.327L191.589 104.74L194.001 104.315L194.427 106.728L196.84 106.302L197.265 108.715L194.852 109.14L194.427 106.728L192.014 107.153L191.589 104.74L184.35 106.017L183.925 103.604L181.512 104.029L181.087 101.616L176.261 102.467L175.836 100.055L173.423 100.48L172.997 98.0672L170.585 98.4926L169.734 93.6671L172.146 93.2416L171.721 90.8289L169.308 91.2543L168.883 88.8415L173.708 87.9906L173.283 85.5779L175.696 85.1524L176.121 87.5652L178.534 87.1398L178.108 84.727L180.521 84.3015L180.096 81.8888L184.921 81.0379L184.496 78.6251L186.909 78.1997L186.058 73.3741L183.645 73.7995L183.22 71.3868L178.394 72.2376L177.969 69.8249L175.556 70.2503L175.13 67.8375ZM173.708 87.9906L174.134 90.4034L176.547 89.978L176.121 87.5652L173.708 87.9906ZM174.559 92.8162L174.985 95.229L177.397 94.8035L176.972 92.3908L174.559 92.8162ZM172.572 95.6544L172.997 98.0672L175.41 97.6417L174.985 95.229L172.572 95.6544ZM177.397 94.8035L177.823 97.2163L180.236 96.7909L179.81 94.3781L177.397 94.8035ZM180.236 96.7909L180.661 99.2037L183.074 98.7782L182.648 96.3654L180.236 96.7909ZM183.074 98.7782L183.499 101.191L185.912 100.766L185.487 98.3528L183.074 98.7782ZM101.611 88.2644L104.023 87.839L104.449 90.2518L102.036 90.6772L101.611 88.2644ZM176.832 77.4886L179.245 77.0632L179.67 79.476L177.258 79.9014L177.683 82.3142L175.27 82.7396L174.845 80.3269L177.258 79.9014L176.832 77.4886ZM78.3337 97.3444L83.1592 96.4935L83.5847 98.9063L85.9974 98.4808L86.4229 100.894L84.0101 101.319L83.5847 98.9063L81.1719 99.3317L82.0228 104.157L77.1972 105.008L76.7718 102.595L79.1845 102.17L78.3337 97.3444ZM82.4482 106.57L84.861 106.145L85.2864 108.557L82.8736 108.983L82.4482 106.57ZM164.483 92.1052L166.895 91.6797L167.321 94.0925L164.908 94.5179L165.334 96.9307L162.921 97.3562L162.495 94.9434L164.908 94.5179L164.483 92.1052ZM155.257 96.2197L160.083 95.3688L160.933 100.194L163.346 99.7689L163.772 102.182L161.359 102.607L161.784 105.02L166.61 104.169L167.035 106.582L169.448 106.156L169.874 108.569L167.461 108.995L167.035 106.582L164.623 107.007L165.048 109.42L162.635 109.845L162.21 107.433L159.797 107.858L158.095 98.207L155.682 98.6325L155.257 96.2197ZM80.8863 111.821L83.2991 111.396L85.8517 125.872L83.4389 126.298L83.0135 123.885L78.1879 124.736L78.6134 127.149L73.7878 127.999L74.2132 130.412L71.8005 130.838L72.2259 133.25L69.8131 133.676L70.2386 136.089L67.8258 136.514L67.4003 134.101L69.8131 133.676L69.3877 131.263L62.1493 132.539L61.7239 130.127L59.3111 130.552L59.7366 132.965L57.3238 133.39L57.7492 135.803L55.3364 136.229L54.911 133.816L57.3238 133.39L56.8983 130.978L59.3111 130.552L58.8857 128.139L63.7112 127.288L64.1367 129.701L68.9622 128.85L68.1114 124.025L75.3497 122.748L74.9243 120.336L77.337 119.91L77.7625 122.323L80.1753 121.898L79.7498 119.485L82.1626 119.059L81.7372 116.647L79.3244 117.072L78.8989 114.659L81.3117 114.234L80.8863 111.821ZM70.9496 126.012L71.375 128.425L73.7878 127.999L73.3624 125.587L70.9496 126.012ZM68.9622 128.85L69.3877 131.263L71.8005 130.838L71.375 128.425L68.9622 128.85ZM87.839 123.034L90.2518 122.609L90.6773 125.021L88.2645 125.447L87.839 123.034ZM165.473 111.833L170.299 110.982L170.724 113.395L173.137 112.969L173.988 117.795L176.401 117.369L176.826 119.782L174.413 120.208L173.988 117.795L171.575 118.22L171.15 115.808L168.737 116.233L168.312 113.82L165.899 114.246L166.324 116.658L163.911 117.084L164.762 121.909L167.175 121.484L168.026 126.31L165.613 126.735L165.188 124.322L160.362 125.173L160.788 127.586L163.2 127.16L163.626 129.573L161.213 129.999L162.064 134.824L159.651 135.25L159.226 132.837L154.4 133.688L153.975 131.275L149.149 132.126L148.298 127.3L145.886 127.726L145.46 125.313L157.524 123.186L157.099 120.773L159.511 120.347L159.086 117.935L163.911 117.084L163.486 114.671L165.899 114.246L165.473 111.833ZM177.537 109.706L179.95 109.28L180.376 111.693L177.963 112.118L177.537 109.706ZM43.2726 138.356L45.6853 137.93L46.1108 140.343L48.5235 139.918L48.949 142.33L53.7745 141.48L54.6254 146.305L57.0382 145.88L57.4636 148.292L52.6381 149.143L53.489 153.969L51.0762 154.394L50.2253 149.569L47.8125 149.994L48.6634 154.82L46.2506 155.245L45.3997 150.42L42.987 150.845L42.5615 148.432L44.9743 148.007L44.1234 143.181L41.7106 143.607L41.2852 141.194L43.698 140.769L43.2726 138.356ZM43.698 140.769L44.1234 143.181L46.5362 142.756L46.1108 140.343L43.698 140.769ZM46.9616 145.169L47.3871 147.581L49.7999 147.156L49.3744 144.743L46.9616 145.169ZM44.9743 148.007L45.3997 150.42L47.8125 149.994L47.3871 147.581L44.9743 148.007ZM49.7999 147.156L50.2253 149.569L52.6381 149.143L52.2126 146.731L49.7999 147.156ZM60.162 135.378L64.9876 134.527L65.413 136.94L60.5874 137.79L60.162 135.378ZM93.9409 129.422L96.3537 128.996L97.2046 133.822L99.6173 133.396L100.043 135.809L102.456 135.384L102.881 137.796L105.294 137.371L105.719 139.784L100.894 140.635L100.468 138.222L95.6427 139.073L93.9409 129.422ZM192.865 111.979L195.278 111.553L195.703 113.966L193.29 114.391L192.865 111.979ZM197.69 111.128L200.103 110.702L200.529 113.115L198.116 113.54L197.69 111.128ZM169.588 121.059L172.001 120.633L172.426 123.046L170.013 123.471L169.588 121.059ZM172.852 125.459L177.677 124.608L178.103 127.021L173.277 127.871L172.852 125.459ZM132.26 135.104L137.085 134.253L138.787 143.904L141.2 143.479L143.327 155.543L136.089 156.819L134.812 149.581L129.987 150.431L129.561 148.019L134.387 147.168L134.812 149.581L137.225 149.155L135.523 139.504L130.698 140.355L130.272 137.942L132.685 137.517L132.26 135.104ZM40.9996 153.683L43.4124 153.258L43.8378 155.671L41.4251 156.096L40.9996 153.683ZM178.528 129.433L183.354 128.582L183.779 130.995L186.192 130.57L186.617 132.983L189.03 132.557L189.881 137.383L187.468 137.808L187.894 140.221L190.306 139.795L190.732 142.208L183.493 143.485L183.068 141.072L185.481 140.646L184.63 135.821L182.217 136.246L181.792 133.833L184.204 133.408L183.779 130.995L178.953 131.846L178.528 129.433ZM184.204 133.408L184.63 135.821L187.043 135.395L186.617 132.983L184.204 133.408ZM128.711 143.193L131.123 142.768L131.549 145.18L129.136 145.606L128.711 143.193ZM114.659 148.158L117.072 147.733L117.498 150.146L115.085 150.571L114.659 148.158ZM70.5183 165.893L72.931 165.467L73.3565 167.88L75.7693 167.455L75.3438 165.042L77.7566 164.617L78.182 167.029L80.5948 166.604L81.0202 169.017L83.433 168.591L83.8585 171.004L86.2712 170.579L86.6967 172.991L84.2839 173.417L84.7093 175.83L82.2966 176.255L81.8711 173.842L79.4583 174.268L79.0329 171.855L76.6201 172.28L77.0456 174.693L74.6328 175.119L74.2073 172.706L76.6201 172.28L76.1947 169.868L73.7819 170.293L73.3565 167.88L70.9437 168.306L70.5183 165.893ZM75.7693 167.455L76.1947 169.868L78.6075 169.442L78.182 167.029L75.7693 167.455ZM78.6075 169.442L79.0329 171.855L81.4457 171.429L81.0202 169.017L78.6075 169.442ZM81.4457 171.429L81.8711 173.842L84.2839 173.417L83.8585 171.004L81.4457 171.429ZM186.332 145.472L188.744 145.046L189.17 147.459L191.583 147.034L192.008 149.447L189.595 149.872L189.17 147.459L186.757 147.885L186.332 145.472ZM68.9564 171.144L71.3691 170.718L71.7946 173.131L69.3818 173.557L68.9564 171.144ZM92.7986 179.379L95.2113 178.953L96.0622 183.779L100.888 182.928L101.313 185.341L110.964 183.639L111.815 188.465L114.228 188.039L113.803 185.626L116.215 185.201L117.066 190.027L126.717 188.325L126.292 185.912L131.117 185.061L131.543 187.474L133.956 187.049L133.105 182.223L135.518 181.798L136.368 186.623L133.956 187.049L134.381 189.461L131.968 189.887L131.543 187.474L129.13 187.899L129.981 192.725L127.568 193.15L127.994 195.563L125.581 195.989L125.155 193.576L122.743 194.001L122.317 191.588L119.904 192.014L120.33 194.427L117.917 194.852L117.492 192.439L115.079 192.865L114.653 190.452L112.241 190.877L111.815 188.465L109.402 188.89L109.828 191.303L107.415 191.728L106.99 189.316L99.7513 190.592L99.3259 188.179L96.9131 188.605L96.0622 183.779L93.6494 184.204L92.7986 179.379ZM124.73 191.163L125.155 193.576L127.568 193.15L127.143 190.738L124.73 191.163ZM162.058 177.118L164.471 176.692L165.322 181.518L162.909 181.943L163.334 184.356L165.747 183.931L166.173 186.343L161.347 187.194L161.773 189.607L164.185 189.182L164.611 191.594L162.198 192.02L161.773 189.607L159.36 190.032L158.934 187.62L156.522 188.045L156.096 185.632L151.271 186.483L150.845 184.07L148.432 184.496L148.007 182.083L150.42 181.658L150.845 184.07L158.083 182.794L157.658 180.381L162.484 179.53L162.058 177.118ZM158.509 185.207L158.934 187.62L161.347 187.194L160.922 184.781L158.509 185.207Z" fill="#57B972"/>
</svg>
